M48
;Layer_Color=9474304
;FILE_FORMAT=4:4
METRIC,LZ
;TYPE=PLATED
T1F00S00C0.7112
T2F00S00C0.7620
T3F00S00C1.6000
T4F00S00C1.7000
T5F00S00C1.8000
T6F00S00C3.2000
;TYPE=NON_PLATED
T7F00S00C0.8890
%
T01
X00183Y00018
X00182Y00078
X00295Y00025
X00225Y00191
X00244Y00242
X00217Y00268
X00169Y00314
Y00348
X00192Y00413
X00278Y0044
X00395Y0049
X00494
Y00466
X00541Y00439
X00494Y0038
X00446
X00398Y003795
X00369Y00344
X0041Y00312
X00415Y00234
X0048Y00279
X00109Y00285
X00129Y00238
X00109Y00379
X00017Y00161
T02
X000356Y00487
X00061
X000864
X0012696Y004869
X0015236
T03
X00098Y00018
T04
X00228Y00035
Y00105
T05
X00098Y00063
T06
X004231Y001483
X001431
T07
X0019684Y004342
X0021716
X00207Y00485
M30
