G04 Layer_Physical_Order=1*
G04 Layer_Color=255*
%FSLAX44Y44*%
%MOMM*%
G71*
G01*
G75*
%ADD10R,2.7000X1.0000*%
%ADD11R,2.7000X3.3000*%
%ADD12R,1.1000X1.4000*%
%ADD13R,1.4000X1.1000*%
%ADD14C,0.7874*%
%ADD15R,1.4000X1.5000*%
%ADD16R,1.5000X1.4000*%
%ADD17R,1.2000X3.5000*%
%ADD18R,2.8000X2.8000*%
%ADD19R,2.8000X2.2000*%
%ADD20R,1.3000X0.6000*%
%ADD21R,0.6000X1.3000*%
%ADD22R,1.6000X0.6000*%
%ADD23R,0.6000X1.6000*%
%ADD24R,2.4000X2.8000*%
%ADD25R,1.4000X0.8000*%
%ADD26R,1.2000X0.8000*%
%ADD27R,0.8000X1.2000*%
%ADD28R,0.8000X1.4000*%
%ADD29C,0.5000*%
%ADD30C,1.0000*%
%ADD31C,3.6000*%
%ADD32C,0.8636*%
%ADD33C,2.0000*%
%ADD34C,1.5240*%
%ADD35C,1.8000*%
%ADD36C,1.2700*%
G36*
X177000Y354264D02*
X175730Y353833D01*
X175340Y354340D01*
X173483Y355765D01*
X171321Y356661D01*
X170270Y356800D01*
Y348000D01*
X169000D01*
Y346730D01*
X160201D01*
X160339Y345679D01*
X161235Y343517D01*
X162660Y341660D01*
X163704Y340858D01*
X163273Y339588D01*
X153588D01*
Y346500D01*
X157000D01*
Y385500D01*
X141000D01*
Y346500D01*
X144412D01*
Y339588D01*
X135900D01*
X129744Y345744D01*
X128256Y346739D01*
X126500Y347088D01*
X118000D01*
Y349460D01*
X118540D01*
Y356230D01*
X109000D01*
X99460D01*
Y349460D01*
X100000D01*
Y335000D01*
X118000D01*
Y337912D01*
X124600D01*
X130756Y331756D01*
X130936Y331635D01*
Y330365D01*
X130756Y330244D01*
X124600Y324088D01*
X118000D01*
Y327000D01*
X100000D01*
Y312540D01*
X99460D01*
Y305770D01*
X118540D01*
Y312540D01*
X118000D01*
Y314912D01*
X126500D01*
X128256Y315261D01*
X129744Y316256D01*
X135900Y322412D01*
X144412D01*
Y315500D01*
X141000D01*
Y276500D01*
X157000D01*
Y315500D01*
X153588D01*
Y322412D01*
X163273D01*
X163704Y321142D01*
X162660Y320340D01*
X161235Y318483D01*
X160339Y316321D01*
X160201Y315270D01*
X169000D01*
Y314000D01*
X170270D01*
Y305201D01*
X171321Y305339D01*
X173483Y306235D01*
X175340Y307660D01*
X175730Y308167D01*
X177000Y307736D01*
Y277000D01*
X177000D01*
Y271000D01*
X92000D01*
Y391000D01*
X177000D01*
Y354264D01*
D02*
G37*
G36*
X212000Y321000D02*
X200000Y321000D01*
X200000Y341000D01*
X212000Y341000D01*
X212000Y321000D01*
D02*
G37*
%LPC*%
G36*
X167730Y312730D02*
X160201D01*
X160339Y311679D01*
X161235Y309517D01*
X162660Y307660D01*
X164517Y306235D01*
X166679Y305339D01*
X167730Y305201D01*
Y312730D01*
D02*
G37*
G36*
X107730Y283730D02*
X100201D01*
X100339Y282679D01*
X101235Y280517D01*
X102660Y278660D01*
X104517Y277235D01*
X106679Y276339D01*
X107730Y276201D01*
Y283730D01*
D02*
G37*
G36*
X117800D02*
X110270D01*
Y276201D01*
X111321Y276339D01*
X113483Y277235D01*
X115340Y278660D01*
X116765Y280517D01*
X117661Y282679D01*
X117800Y283730D01*
D02*
G37*
G36*
X118540Y303230D02*
X99460D01*
Y296460D01*
X101940D01*
Y290402D01*
X101235Y289483D01*
X100339Y287321D01*
X100201Y286270D01*
X117800D01*
X117661Y287321D01*
X116765Y289483D01*
X116060Y290402D01*
Y296460D01*
X118540D01*
Y303230D01*
D02*
G37*
G36*
X107730Y387799D02*
X106679Y387661D01*
X104517Y386765D01*
X102660Y385340D01*
X101235Y383483D01*
X100339Y381321D01*
X100201Y380270D01*
X107730D01*
Y387799D01*
D02*
G37*
G36*
X110270D02*
Y380270D01*
X117800D01*
X117661Y381321D01*
X116765Y383483D01*
X115340Y385340D01*
X113483Y386765D01*
X111321Y387661D01*
X110270Y387799D01*
D02*
G37*
G36*
X167730Y356800D02*
X166679Y356661D01*
X164517Y355765D01*
X162660Y354340D01*
X161235Y352483D01*
X160339Y350321D01*
X160201Y349270D01*
X167730D01*
Y356800D01*
D02*
G37*
G36*
X117800Y377730D02*
X100201D01*
X100339Y376679D01*
X101235Y374517D01*
X101940Y373598D01*
Y365540D01*
X99460D01*
Y358770D01*
X109000D01*
X118540D01*
Y365540D01*
X116060D01*
Y373598D01*
X116765Y374517D01*
X117661Y376679D01*
X117800Y377730D01*
D02*
G37*
%LPD*%
D10*
X99500Y238000D02*
D03*
Y215000D02*
D03*
Y192000D02*
D03*
D11*
X158500Y215000D02*
D03*
D12*
X258500Y262000D02*
D03*
X243500D02*
D03*
X206500Y191000D02*
D03*
X191500D02*
D03*
X39500Y161000D02*
D03*
X54500D02*
D03*
X184500Y268000D02*
D03*
X199500D02*
D03*
X243500Y440000D02*
D03*
X258500D02*
D03*
D13*
X323000Y481500D02*
D03*
Y466500D02*
D03*
X434000Y326500D02*
D03*
Y311500D02*
D03*
X61000Y439500D02*
D03*
Y454500D02*
D03*
X541000Y421500D02*
D03*
Y406500D02*
D03*
X350000Y344500D02*
D03*
Y359500D02*
D03*
X109000Y357500D02*
D03*
Y342500D02*
D03*
Y304500D02*
D03*
Y319500D02*
D03*
D14*
X213350Y459600D02*
D03*
X200650Y446900D02*
D03*
Y459600D02*
D03*
X213350Y472300D02*
D03*
X200650D02*
D03*
X213350Y446900D02*
D03*
D15*
X50000Y385000D02*
D03*
X30000D02*
D03*
X264000Y480000D02*
D03*
X244000D02*
D03*
X344000Y215000D02*
D03*
X324000D02*
D03*
X344000Y254000D02*
D03*
X324000D02*
D03*
X374000D02*
D03*
X394000D02*
D03*
X374000Y215000D02*
D03*
X394000D02*
D03*
D16*
X303000Y122000D02*
D03*
Y102000D02*
D03*
X508000Y299000D02*
D03*
Y279000D02*
D03*
X295000Y481000D02*
D03*
Y461000D02*
D03*
X30000Y418000D02*
D03*
Y438000D02*
D03*
D17*
X149000Y296000D02*
D03*
Y366000D02*
D03*
D18*
X220500Y159000D02*
D03*
X265000Y119000D02*
D03*
D19*
Y24000D02*
D03*
D20*
X103750Y436000D02*
D03*
X126250Y442500D02*
D03*
Y429500D02*
D03*
D21*
X303000Y162750D02*
D03*
X296500Y185250D02*
D03*
X309500D02*
D03*
D22*
X305000Y311000D02*
D03*
Y319000D02*
D03*
Y327000D02*
D03*
Y335000D02*
D03*
Y343000D02*
D03*
Y351000D02*
D03*
Y359000D02*
D03*
Y367000D02*
D03*
Y375000D02*
D03*
Y383000D02*
D03*
Y391000D02*
D03*
X189000D02*
D03*
Y383000D02*
D03*
Y375000D02*
D03*
Y367000D02*
D03*
Y359000D02*
D03*
Y351000D02*
D03*
Y343000D02*
D03*
Y335000D02*
D03*
Y327000D02*
D03*
Y319000D02*
D03*
Y311000D02*
D03*
D23*
X287000Y409000D02*
D03*
X279000D02*
D03*
X271000D02*
D03*
X263000D02*
D03*
X255000D02*
D03*
X247000D02*
D03*
X239000D02*
D03*
X231000D02*
D03*
X223000D02*
D03*
X215000D02*
D03*
X207000D02*
D03*
Y293000D02*
D03*
X215000D02*
D03*
X223000D02*
D03*
X231000D02*
D03*
X239000D02*
D03*
X247000D02*
D03*
X255000D02*
D03*
X263000D02*
D03*
X271000D02*
D03*
X279000D02*
D03*
X287000D02*
D03*
D24*
X41000Y18000D02*
D03*
Y79000D02*
D03*
X155000Y18000D02*
D03*
Y79000D02*
D03*
D25*
X374000Y502000D02*
D03*
Y490000D02*
D03*
Y478000D02*
D03*
Y466000D02*
D03*
Y454000D02*
D03*
Y442000D02*
D03*
Y430000D02*
D03*
Y418000D02*
D03*
Y406000D02*
D03*
Y394000D02*
D03*
Y382000D02*
D03*
X518000D02*
D03*
Y394000D02*
D03*
Y406000D02*
D03*
Y418000D02*
D03*
Y430000D02*
D03*
Y442000D02*
D03*
Y454000D02*
D03*
Y466000D02*
D03*
Y478000D02*
D03*
Y490000D02*
D03*
Y502000D02*
D03*
D26*
X373000Y370000D02*
D03*
X519000D02*
D03*
D27*
X386000Y353000D02*
D03*
X506000D02*
D03*
D28*
X398000Y354000D02*
D03*
X410000D02*
D03*
X422000D02*
D03*
X434000D02*
D03*
X446000D02*
D03*
X458000D02*
D03*
X470000D02*
D03*
X482000D02*
D03*
X494000D02*
D03*
D29*
X243500Y262000D02*
X243500Y262000D01*
X243500Y262000D02*
Y274500D01*
X258500Y262000D02*
Y273500D01*
X255000Y277000D02*
X258500Y273500D01*
X176000Y410000D02*
Y464000D01*
Y410000D02*
X187500Y398500D01*
X360000Y299000D02*
X527000D01*
X193600Y459600D02*
X200650D01*
X188000Y454000D02*
X193600Y459600D01*
X188000Y442115D02*
Y454000D01*
X187895Y442010D02*
X188000Y442115D01*
X187895Y430495D02*
Y442010D01*
Y430495D02*
X192000Y426390D01*
Y413000D02*
Y426390D01*
X198864Y398500D02*
X203364Y394000D01*
X233364D01*
X187500Y398500D02*
X198864D01*
X184300Y472300D02*
X200650D01*
Y446900D02*
X207000Y440550D01*
Y409000D02*
Y440550D01*
X226500Y429890D02*
Y454500D01*
X221400Y459600D02*
X226500Y454500D01*
X213350Y459600D02*
X221400D01*
X215000Y409000D02*
Y418390D01*
X226500Y429890D01*
X233500Y425601D02*
Y454500D01*
X213300Y472300D02*
X236000Y495000D01*
X331000D01*
X337000Y441000D02*
X337000D01*
X287000Y391000D02*
X337000Y441000D01*
X262000Y391000D02*
X287000D01*
X255000Y384000D02*
X262000Y391000D01*
X255000Y384000D02*
X255000D01*
X255000Y342000D02*
Y384000D01*
X337000Y441000D02*
Y489000D01*
X331000Y495000D02*
X337000Y489000D01*
X233364Y394000D02*
X238500Y399136D01*
X176000Y464000D02*
X184300Y472300D01*
X238500Y408500D02*
X239000Y409000D01*
X238500Y399136D02*
Y408500D01*
X295000Y481000D02*
X322500D01*
X323000Y481500D01*
X254000Y461000D02*
X295000D01*
X243500Y450500D02*
X254000Y461000D01*
X243500Y440000D02*
Y450500D01*
X244000Y465000D02*
Y480000D01*
X233500Y454500D02*
X244000Y465000D01*
X318000Y351000D02*
X342500Y326500D01*
X349500Y359000D02*
X350000Y359500D01*
X305000Y359000D02*
X349500D01*
X305000Y351000D02*
X318000D01*
X316000Y343000D02*
X360000Y299000D01*
X305000Y343000D02*
X316000D01*
X264000Y480000D02*
X291000D01*
X434000Y330500D02*
Y354000D01*
X126810Y486750D02*
X126960Y486900D01*
X30000Y439100D02*
X31850Y437250D01*
X30000Y439100D02*
Y459000D01*
X35700Y464700D01*
Y486900D01*
X31850Y437250D02*
X61100D01*
X398000Y380000D02*
X410000Y368000D01*
Y354000D02*
Y368000D01*
Y354000D02*
X422000D01*
X446000D02*
X446000Y354000D01*
Y380000D01*
X206000Y333000D02*
Y341000D01*
X504000Y370000D02*
X519000D01*
X494000Y380000D02*
X504000Y370000D01*
X519000Y356000D02*
Y370000D01*
X516000Y353000D02*
X519000Y356000D01*
X506000Y353000D02*
X516000D01*
X388000Y370000D02*
X398000Y380000D01*
X373000Y370000D02*
X388000D01*
X247000Y392000D02*
Y409000D01*
Y392000D02*
X255000Y384000D01*
X246000Y351000D02*
X255000Y342000D01*
X264000Y351000D02*
X305000D01*
X255000Y342000D02*
X264000Y351000D01*
X255000Y293000D02*
Y342000D01*
X374000Y490000D02*
Y502000D01*
X518000Y490000D02*
Y502000D01*
Y478000D02*
Y490000D01*
Y466000D02*
Y478000D01*
Y454000D02*
Y466000D01*
X348000Y382000D02*
X374000D01*
X333000Y367000D02*
X348000Y382000D01*
X305000Y367000D02*
X333000D01*
X331000Y375000D02*
X350000Y394000D01*
X305000Y375000D02*
X331000D01*
X329399Y383500D02*
X351000Y405101D01*
X305500Y383500D02*
X329399D01*
X327000Y391000D02*
X344000Y408000D01*
X305000Y391000D02*
X327000D01*
X350000Y394000D02*
X374000D01*
X361000Y430000D02*
X374000D01*
X351000Y420000D02*
X361000Y430000D01*
X351000Y405101D02*
Y420000D01*
X305000Y383000D02*
X305500Y383500D01*
X361000Y442000D02*
X374000D01*
X344000Y425000D02*
X361000Y442000D01*
X344000Y408000D02*
Y425000D01*
X305000Y359000D02*
Y359500D01*
X344000Y215000D02*
X374000D01*
X344000Y254000D02*
X374000D01*
X233500Y425601D02*
X239000Y420101D01*
Y409000D02*
Y420101D01*
X243500Y274500D02*
X247000Y278000D01*
X255000Y277000D02*
Y293000D01*
X247000Y278000D02*
Y293000D01*
X255000Y409000D02*
Y422000D01*
X258500Y425500D01*
Y440000D01*
X243500Y425500D02*
Y440000D01*
Y425500D02*
X247000Y422000D01*
Y409000D02*
Y422000D01*
X189000Y343000D02*
X204000D01*
X206000Y341000D01*
X149000Y327000D02*
X189000D01*
X149000Y296000D02*
Y327000D01*
X134000D02*
X149000D01*
X134000Y335000D02*
X149000D01*
X189000D01*
X149000D02*
Y366000D01*
X109000Y342500D02*
X126500D01*
X134000Y335000D01*
X109000Y319500D02*
X126500D01*
X134000Y327000D01*
X518000Y406000D02*
X534000D01*
X342500Y326500D02*
X434000D01*
X511500D01*
X541000Y356000D01*
Y406500D01*
X527000Y299000D02*
X557000Y329000D01*
X518000Y442000D02*
X528656D01*
X536506Y449850D01*
X548850D01*
X557000Y441700D01*
Y329000D02*
Y441700D01*
X373000Y357000D02*
Y370000D01*
Y357000D02*
X377000Y353000D01*
X386000D01*
X309500Y185250D02*
X408250D01*
X431000Y208000D01*
Y258000D01*
X414000Y275000D02*
X431000Y258000D01*
X292000Y275000D02*
X414000D01*
X287000Y280000D02*
X292000Y275000D01*
X287000Y280000D02*
Y293000D01*
X279000Y273000D02*
Y293000D01*
Y273000D02*
X298000Y254000D01*
X324000D01*
X86400Y487000D02*
Y499400D01*
X91000Y504000D01*
X126250Y411250D02*
Y429500D01*
X169000Y348000D02*
X172000D01*
X188500Y343500D02*
X189000Y343000D01*
X211000Y351000D02*
X220000Y342000D01*
X189000Y351000D02*
X211000D01*
X246000D01*
X91000Y504000D02*
X161000D01*
X169000Y496000D01*
X189000Y391000D02*
Y391500D01*
X169000Y407000D02*
Y496000D01*
Y407000D02*
X184500Y391500D01*
X189000D01*
X120000Y405000D02*
X126250Y411250D01*
X86000Y258100D02*
X92600Y251500D01*
X221500D01*
X231000Y261000D01*
Y293000D01*
X184500Y270000D02*
Y287864D01*
X176500Y343500D02*
X188500D01*
X172000Y348000D02*
X176500Y343500D01*
X184500Y287864D02*
X202136Y305500D01*
X220000Y313000D02*
Y342000D01*
X202136Y305500D02*
X212500D01*
X220000Y313000D01*
X93000Y405000D02*
X120000D01*
X86000Y398000D02*
X93000Y405000D01*
X86000Y258100D02*
Y398000D01*
D30*
X99500Y215000D02*
X99500Y215000D01*
X170000Y41000D02*
X182000Y53000D01*
X96000Y41000D02*
X170000D01*
X73000Y18000D02*
X96000Y41000D01*
X41000Y18000D02*
X73000D01*
X41000D02*
Y120500D01*
X155000Y78000D02*
X182000D01*
X162000Y18000D02*
X183000D01*
X155000Y25000D02*
X162000Y18000D01*
X41000Y120500D02*
X81500Y161000D01*
X54500D02*
X81500D01*
X17000D02*
X39500D01*
X264360Y25060D02*
X264420Y25000D01*
X295000D01*
X311000Y440000D02*
X323000Y452000D01*
X278000Y440000D02*
X311000D01*
X323000Y452000D02*
Y466500D01*
X258500Y440000D02*
X278000D01*
X350000Y344500D02*
X369000D01*
X433500Y312000D02*
X434000Y311500D01*
X410000Y312000D02*
X433500D01*
X109000Y285000D02*
Y304500D01*
Y357500D02*
Y379000D01*
X374000Y490000D02*
X395000D01*
X494000D02*
X518000D01*
Y466000D02*
X518000Y466000D01*
X494000Y466000D02*
X518000D01*
X480000Y279000D02*
X508000D01*
X508000Y279000D01*
X541000Y421500D02*
Y439000D01*
X81500Y161000D02*
X99500Y179000D01*
Y187000D01*
X82000Y215000D02*
X99500D01*
X75525Y221476D02*
X82000Y215000D01*
X99500Y215000D02*
X118601D01*
X142101Y191500D01*
X191000D01*
X99500Y238000D02*
X129000D01*
X99500Y238000D02*
X99500Y238000D01*
X30000Y297438D02*
Y418000D01*
X152000Y486540D02*
X152360Y486900D01*
X61000Y454500D02*
Y487000D01*
X126810Y444250D02*
Y486750D01*
X259000Y230000D02*
Y260500D01*
X75525Y221476D02*
Y251914D01*
X30000Y297438D02*
X75525Y251914D01*
X243000Y261500D02*
X243500Y262000D01*
X206500Y191000D02*
X225000D01*
X394000Y215000D02*
X408000D01*
X415000Y222000D01*
Y246000D01*
X407000Y254000D02*
X415000Y246000D01*
X394000Y254000D02*
X407000D01*
X324000Y215000D02*
X324000Y215000D01*
X182000Y53000D02*
X275000D01*
X303000Y81000D01*
Y98000D01*
X265000Y119000D02*
Y171000D01*
X279250Y185250D01*
X296500D01*
X303000Y122000D02*
Y162750D01*
X191000Y191500D02*
X191500Y191000D01*
X191000Y191500D02*
Y206000D01*
X200000Y215000D01*
X244000Y242000D02*
Y260500D01*
X243000Y261500D02*
X244000Y260500D01*
Y215000D02*
X259000Y230000D01*
X200000Y215000D02*
X244000D01*
X324000D01*
X199500Y268000D02*
X217000D01*
X88000Y436000D02*
X103750D01*
X50000Y390000D02*
Y398000D01*
X88000Y436000D01*
D31*
X423100Y148300D02*
D03*
X143100D02*
D03*
D32*
X207000Y485000D02*
D03*
X217160Y434200D02*
D03*
X196840D02*
D03*
D33*
X228000Y105000D02*
D03*
Y35000D02*
D03*
X98000Y63000D02*
D03*
D34*
X126960Y486900D02*
D03*
X152360D02*
D03*
X86400Y487000D02*
D03*
X35600D02*
D03*
X61000D02*
D03*
D35*
X98000Y18000D02*
D03*
D36*
X182000Y78000D02*
D03*
X183000Y18000D02*
D03*
X17000Y161000D02*
D03*
X192000Y413000D02*
D03*
X278000Y440000D02*
D03*
X398000Y379500D02*
D03*
X369000Y344000D02*
D03*
X295000Y25000D02*
D03*
X410000Y312000D02*
D03*
X109000Y285000D02*
D03*
Y379000D02*
D03*
X446000Y380000D02*
D03*
X395000Y490000D02*
D03*
X494000D02*
D03*
Y466000D02*
D03*
Y380000D02*
D03*
X169000Y314000D02*
D03*
Y348000D02*
D03*
X480000Y279000D02*
D03*
X541000Y439000D02*
D03*
X129000Y238000D02*
D03*
X225000Y191000D02*
D03*
X415000Y234000D02*
D03*
X244000Y242000D02*
D03*
X217000Y268000D02*
D03*
M02*
