G04 Layer_Physical_Order=2*
G04 Layer_Color=16711680*
%FSLAX44Y44*%
%MOMM*%
G71*
G01*
G75*
%ADD31C,3.6000*%
%ADD32C,0.8636*%
%ADD33C,2.0000*%
%ADD34C,1.5240*%
%ADD35C,1.8000*%
%ADD36C,1.2700*%
G36*
X560000Y252434D02*
X533050D01*
X532228Y252271D01*
X527202Y251875D01*
X521497Y250505D01*
X516077Y248260D01*
X511076Y245195D01*
X506615Y241385D01*
X502805Y236924D01*
X499739Y231922D01*
X497495Y226503D01*
X496125Y220798D01*
X495665Y214950D01*
X496125Y209102D01*
X497495Y203397D01*
X499739Y197978D01*
X502805Y192976D01*
X506615Y188515D01*
X511076Y184705D01*
X516077Y181639D01*
X521497Y179394D01*
X527202Y178025D01*
X533050Y177565D01*
Y177616D01*
X560000D01*
X560000Y5000D01*
X4000Y5000D01*
Y177616D01*
X33050D01*
Y177565D01*
X38898Y178025D01*
X44603Y179394D01*
X50023Y181639D01*
X55024Y184705D01*
X59485Y188515D01*
X63295Y192976D01*
X66361Y197978D01*
X68605Y203397D01*
X69975Y209102D01*
X70435Y214950D01*
X69975Y220798D01*
X68605Y226503D01*
X66361Y231922D01*
X63295Y236924D01*
X59485Y241385D01*
X55024Y245195D01*
X50023Y248260D01*
X44603Y250505D01*
X38898Y251875D01*
X33050Y252335D01*
Y252284D01*
X4000D01*
Y507000D01*
X372263D01*
X372558Y506558D01*
X373220Y506116D01*
X374000Y505961D01*
X518000D01*
X518780Y506116D01*
X519442Y506558D01*
X519737Y507000D01*
X560000D01*
X560000Y252434D01*
D02*
G37*
%LPC*%
G36*
X215730Y276800D02*
X214679Y276661D01*
X212517Y275765D01*
X210660Y274340D01*
X209235Y272483D01*
X208339Y270321D01*
X208200Y269270D01*
X215730D01*
Y276800D01*
D02*
G37*
G36*
X225800Y266730D02*
X218270D01*
Y259200D01*
X219321Y259339D01*
X221483Y260235D01*
X223340Y261660D01*
X224765Y263517D01*
X225661Y265679D01*
X225800Y266730D01*
D02*
G37*
G36*
X215730D02*
X208200D01*
X208339Y265679D01*
X209235Y263517D01*
X210660Y261660D01*
X212517Y260235D01*
X214679Y259339D01*
X215730Y259200D01*
Y266730D01*
D02*
G37*
G36*
X218270Y276800D02*
Y269270D01*
X225800D01*
X225661Y270321D01*
X224765Y272483D01*
X223340Y274340D01*
X221483Y275765D01*
X219321Y276661D01*
X218270Y276800D01*
D02*
G37*
G36*
X107730Y283730D02*
X100201D01*
X100339Y282679D01*
X101235Y280517D01*
X102660Y278660D01*
X104517Y277235D01*
X106679Y276339D01*
X107730Y276201D01*
Y283730D01*
D02*
G37*
G36*
X488800Y277730D02*
X481270D01*
Y270201D01*
X482321Y270339D01*
X484483Y271235D01*
X486340Y272660D01*
X487765Y274517D01*
X488661Y276679D01*
X488800Y277730D01*
D02*
G37*
G36*
X478730D02*
X471200D01*
X471339Y276679D01*
X472235Y274517D01*
X473660Y272660D01*
X475517Y271235D01*
X477679Y270339D01*
X478730Y270201D01*
Y277730D01*
D02*
G37*
G36*
X245270Y250800D02*
Y243270D01*
X252799D01*
X252661Y244321D01*
X251765Y246483D01*
X250340Y248340D01*
X248483Y249765D01*
X246321Y250661D01*
X245270Y250800D01*
D02*
G37*
G36*
X413730Y242799D02*
X412679Y242661D01*
X410517Y241765D01*
X408660Y240340D01*
X407235Y238483D01*
X406339Y236321D01*
X406200Y235270D01*
X413730D01*
Y242799D01*
D02*
G37*
G36*
X252799Y240730D02*
X245270D01*
Y233200D01*
X246321Y233339D01*
X248483Y234235D01*
X250340Y235660D01*
X251765Y237517D01*
X252661Y239679D01*
X252799Y240730D01*
D02*
G37*
G36*
X242730D02*
X235201D01*
X235339Y239679D01*
X236235Y237517D01*
X237660Y235660D01*
X239517Y234235D01*
X241679Y233339D01*
X242730Y233200D01*
Y240730D01*
D02*
G37*
G36*
X416270Y242799D02*
Y235270D01*
X423800D01*
X423661Y236321D01*
X422765Y238483D01*
X421340Y240340D01*
X419483Y241765D01*
X417321Y242661D01*
X416270Y242799D01*
D02*
G37*
G36*
X242730Y250800D02*
X241679Y250661D01*
X239517Y249765D01*
X237660Y248340D01*
X236235Y246483D01*
X235339Y244321D01*
X235201Y243270D01*
X242730D01*
Y250800D01*
D02*
G37*
G36*
X130270Y246800D02*
Y239270D01*
X137800D01*
X137661Y240321D01*
X136765Y242483D01*
X135340Y244340D01*
X133483Y245765D01*
X131321Y246661D01*
X130270Y246800D01*
D02*
G37*
G36*
X127730D02*
X126679Y246661D01*
X124517Y245765D01*
X122660Y244340D01*
X121235Y242483D01*
X120339Y240321D01*
X120201Y239270D01*
X127730D01*
Y246800D01*
D02*
G37*
G36*
X411270Y320799D02*
Y313270D01*
X418800D01*
X418661Y314321D01*
X417765Y316483D01*
X416340Y318340D01*
X414483Y319765D01*
X412321Y320661D01*
X411270Y320799D01*
D02*
G37*
G36*
X408730D02*
X407679Y320661D01*
X405517Y319765D01*
X403660Y318340D01*
X402235Y316483D01*
X401339Y314321D01*
X401200Y313270D01*
X408730D01*
Y320799D01*
D02*
G37*
G36*
X177799Y312730D02*
X170270D01*
Y305201D01*
X171321Y305339D01*
X173483Y306235D01*
X175340Y307660D01*
X176765Y309517D01*
X177661Y311679D01*
X177799Y312730D01*
D02*
G37*
G36*
X167730Y322799D02*
X166679Y322661D01*
X164517Y321765D01*
X162660Y320340D01*
X161235Y318483D01*
X160339Y316321D01*
X160201Y315270D01*
X167730D01*
Y322799D01*
D02*
G37*
G36*
X377799Y342730D02*
X370270D01*
Y335201D01*
X371321Y335339D01*
X373483Y336235D01*
X375340Y337659D01*
X376765Y339517D01*
X377661Y341679D01*
X377799Y342730D01*
D02*
G37*
G36*
X367730D02*
X360201D01*
X360339Y341679D01*
X361235Y339517D01*
X362660Y337659D01*
X364517Y336235D01*
X366679Y335339D01*
X367730Y335201D01*
Y342730D01*
D02*
G37*
G36*
X170270Y322799D02*
Y315270D01*
X177799D01*
X177661Y316321D01*
X176765Y318483D01*
X175340Y320340D01*
X173483Y321765D01*
X171321Y322661D01*
X170270Y322799D01*
D02*
G37*
G36*
X167730Y312730D02*
X160201D01*
X160339Y311679D01*
X161235Y309517D01*
X162660Y307660D01*
X164517Y306235D01*
X166679Y305339D01*
X167730Y305201D01*
Y312730D01*
D02*
G37*
G36*
X481270Y287799D02*
Y280270D01*
X488800D01*
X488661Y281321D01*
X487765Y283483D01*
X486340Y285340D01*
X484483Y286765D01*
X482321Y287661D01*
X481270Y287799D01*
D02*
G37*
G36*
X478730D02*
X477679Y287661D01*
X475517Y286765D01*
X473660Y285340D01*
X472235Y283483D01*
X471339Y281321D01*
X471200Y280270D01*
X478730D01*
Y287799D01*
D02*
G37*
G36*
X117800Y283730D02*
X110270D01*
Y276201D01*
X111321Y276339D01*
X113483Y277235D01*
X115340Y278660D01*
X116765Y280517D01*
X117661Y282679D01*
X117800Y283730D01*
D02*
G37*
G36*
X107730Y293799D02*
X106679Y293661D01*
X104517Y292765D01*
X102660Y291340D01*
X101235Y289483D01*
X100339Y287321D01*
X100201Y286270D01*
X107730D01*
Y293799D01*
D02*
G37*
G36*
X418800Y310730D02*
X411270D01*
Y303200D01*
X412321Y303339D01*
X414483Y304235D01*
X416340Y305660D01*
X417765Y307517D01*
X418661Y309679D01*
X418800Y310730D01*
D02*
G37*
G36*
X408730D02*
X401200D01*
X401339Y309679D01*
X402235Y307517D01*
X403660Y305660D01*
X405517Y304235D01*
X407679Y303339D01*
X408730Y303200D01*
Y310730D01*
D02*
G37*
G36*
X110270Y293799D02*
Y286270D01*
X117800D01*
X117661Y287321D01*
X116765Y289483D01*
X115340Y291340D01*
X113483Y292765D01*
X111321Y293661D01*
X110270Y293799D01*
D02*
G37*
G36*
X98000Y75104D02*
X94867Y74691D01*
X91948Y73482D01*
X89441Y71558D01*
X87518Y69052D01*
X86309Y66133D01*
X85896Y63000D01*
X86309Y59867D01*
X87518Y56948D01*
X89441Y54441D01*
X91948Y52518D01*
X94867Y51309D01*
X98000Y50896D01*
X101133Y51309D01*
X104052Y52518D01*
X106559Y54441D01*
X108482Y56948D01*
X109691Y59867D01*
X110104Y63000D01*
X109691Y66133D01*
X108482Y69052D01*
X106559Y71558D01*
X104052Y73482D01*
X101133Y74691D01*
X98000Y75104D01*
D02*
G37*
G36*
X296270Y33800D02*
Y26270D01*
X303799D01*
X303661Y27321D01*
X302765Y29483D01*
X301340Y31340D01*
X299483Y32765D01*
X297321Y33661D01*
X296270Y33800D01*
D02*
G37*
G36*
X293730D02*
X292679Y33661D01*
X290517Y32765D01*
X288660Y31340D01*
X287235Y29483D01*
X286339Y27321D01*
X286201Y26270D01*
X293730D01*
Y33800D01*
D02*
G37*
G36*
X180730Y76730D02*
X173200D01*
X173339Y75679D01*
X174235Y73517D01*
X175660Y71660D01*
X177517Y70235D01*
X179679Y69339D01*
X180730Y69201D01*
Y76730D01*
D02*
G37*
G36*
X183270Y86799D02*
Y79270D01*
X190800D01*
X190661Y80321D01*
X189765Y82483D01*
X188340Y84340D01*
X186483Y85765D01*
X184321Y86661D01*
X183270Y86799D01*
D02*
G37*
G36*
X180730D02*
X179679Y86661D01*
X177517Y85765D01*
X175660Y84340D01*
X174235Y82483D01*
X173339Y80321D01*
X173200Y79270D01*
X180730D01*
Y86799D01*
D02*
G37*
G36*
X190800Y76730D02*
X183270D01*
Y69201D01*
X184321Y69339D01*
X186483Y70235D01*
X188340Y71660D01*
X189765Y73517D01*
X190661Y75679D01*
X190800Y76730D01*
D02*
G37*
G36*
X228000Y47104D02*
X224867Y46691D01*
X221948Y45482D01*
X219442Y43559D01*
X217518Y41052D01*
X216309Y38133D01*
X215896Y35000D01*
X216309Y31867D01*
X217518Y28948D01*
X219442Y26442D01*
X221948Y24518D01*
X224867Y23309D01*
X228000Y22896D01*
X231133Y23309D01*
X234052Y24518D01*
X236558Y26442D01*
X238482Y28948D01*
X239691Y31867D01*
X240104Y35000D01*
X239691Y38133D01*
X238482Y41052D01*
X236558Y43559D01*
X234052Y45482D01*
X231133Y46691D01*
X228000Y47104D01*
D02*
G37*
G36*
X191800Y16730D02*
X184270D01*
Y9201D01*
X185321Y9339D01*
X187483Y10235D01*
X189340Y11660D01*
X190765Y13517D01*
X191661Y15679D01*
X191800Y16730D01*
D02*
G37*
G36*
X181730D02*
X174200D01*
X174339Y15679D01*
X175235Y13517D01*
X176660Y11660D01*
X178517Y10235D01*
X180679Y9339D01*
X181730Y9201D01*
Y16730D01*
D02*
G37*
G36*
X98000Y29095D02*
X95128Y28717D01*
X92453Y27608D01*
X90155Y25845D01*
X88392Y23547D01*
X87283Y20872D01*
X86905Y18000D01*
X87283Y15128D01*
X88392Y12453D01*
X90155Y10155D01*
X92453Y8392D01*
X95128Y7283D01*
X98000Y6905D01*
X100872Y7283D01*
X103547Y8392D01*
X105845Y10155D01*
X107608Y12453D01*
X108717Y15128D01*
X109095Y18000D01*
X108717Y20872D01*
X107608Y23547D01*
X105845Y25845D01*
X103547Y27608D01*
X100872Y28717D01*
X98000Y29095D01*
D02*
G37*
G36*
X293730Y23730D02*
X286201D01*
X286339Y22679D01*
X287235Y20517D01*
X288660Y18660D01*
X290517Y17235D01*
X292679Y16339D01*
X293730Y16200D01*
Y23730D01*
D02*
G37*
G36*
X184270Y26799D02*
Y19270D01*
X191800D01*
X191661Y20321D01*
X190765Y22483D01*
X189340Y24340D01*
X187483Y25765D01*
X185321Y26661D01*
X184270Y26799D01*
D02*
G37*
G36*
X181730D02*
X180679Y26661D01*
X178517Y25765D01*
X176660Y24340D01*
X175235Y22483D01*
X174339Y20321D01*
X174200Y19270D01*
X181730D01*
Y26799D01*
D02*
G37*
G36*
X303799Y23730D02*
X296270D01*
Y16200D01*
X297321Y16339D01*
X299483Y17235D01*
X301340Y18660D01*
X302765Y20517D01*
X303661Y22679D01*
X303799Y23730D01*
D02*
G37*
G36*
X226270Y199799D02*
Y192270D01*
X233799D01*
X233661Y193321D01*
X232765Y195483D01*
X231340Y197340D01*
X229483Y198765D01*
X227321Y199661D01*
X226270Y199799D01*
D02*
G37*
G36*
X223730D02*
X222679Y199661D01*
X220517Y198765D01*
X218660Y197340D01*
X217235Y195483D01*
X216339Y193321D01*
X216201Y192270D01*
X223730D01*
Y199799D01*
D02*
G37*
G36*
X233799Y189730D02*
X226270D01*
Y182201D01*
X227321Y182339D01*
X229483Y183235D01*
X231340Y184660D01*
X232765Y186517D01*
X233661Y188679D01*
X233799Y189730D01*
D02*
G37*
G36*
X413730Y232730D02*
X406200D01*
X406339Y231679D01*
X407235Y229517D01*
X408660Y227660D01*
X410517Y226235D01*
X412679Y225339D01*
X413730Y225201D01*
Y232730D01*
D02*
G37*
G36*
X137800Y236730D02*
X130270D01*
Y229200D01*
X131321Y229339D01*
X133483Y230235D01*
X135340Y231660D01*
X136765Y233517D01*
X137661Y235679D01*
X137800Y236730D01*
D02*
G37*
G36*
X127730D02*
X120201D01*
X120339Y235679D01*
X121235Y233517D01*
X122660Y231660D01*
X124517Y230235D01*
X126679Y229339D01*
X127730Y229200D01*
Y236730D01*
D02*
G37*
G36*
X423800Y232730D02*
X416270D01*
Y225201D01*
X417321Y225339D01*
X419483Y226235D01*
X421340Y227660D01*
X422765Y229517D01*
X423661Y231679D01*
X423800Y232730D01*
D02*
G37*
G36*
X223730Y189730D02*
X216201D01*
X216339Y188679D01*
X217235Y186517D01*
X218660Y184660D01*
X220517Y183235D01*
X222679Y182339D01*
X223730Y182201D01*
Y189730D01*
D02*
G37*
G36*
X423100Y177282D02*
X418566Y176925D01*
X414144Y175863D01*
X409943Y174123D01*
X406065Y171747D01*
X402607Y168793D01*
X399653Y165335D01*
X397277Y161457D01*
X395537Y157256D01*
X394475Y152834D01*
X394118Y148300D01*
X394475Y143766D01*
X395537Y139344D01*
X397277Y135143D01*
X399653Y131265D01*
X402607Y127807D01*
X406065Y124853D01*
X409943Y122477D01*
X414144Y120737D01*
X418566Y119675D01*
X423100Y119318D01*
X427634Y119675D01*
X432056Y120737D01*
X436257Y122477D01*
X440135Y124853D01*
X443593Y127807D01*
X446547Y131265D01*
X448923Y135143D01*
X450663Y139344D01*
X451725Y143766D01*
X452082Y148300D01*
X451725Y152834D01*
X450663Y157256D01*
X448923Y161457D01*
X446547Y165335D01*
X443593Y168793D01*
X440135Y171747D01*
X436257Y174123D01*
X432056Y175863D01*
X427634Y176925D01*
X423100Y177282D01*
D02*
G37*
G36*
X143100D02*
X138566Y176925D01*
X134144Y175863D01*
X129943Y174123D01*
X126065Y171747D01*
X122607Y168793D01*
X119653Y165335D01*
X117277Y161457D01*
X115537Y157256D01*
X114475Y152834D01*
X114118Y148300D01*
X114475Y143766D01*
X115537Y139344D01*
X117277Y135143D01*
X119653Y131265D01*
X122607Y127807D01*
X126065Y124853D01*
X129943Y122477D01*
X134144Y120737D01*
X138566Y119675D01*
X143100Y119318D01*
X147634Y119675D01*
X152056Y120737D01*
X156257Y122477D01*
X160135Y124853D01*
X163593Y127807D01*
X166547Y131265D01*
X168923Y135143D01*
X170663Y139344D01*
X171725Y143766D01*
X172082Y148300D01*
X171725Y152834D01*
X170663Y157256D01*
X168923Y161457D01*
X166547Y165335D01*
X163593Y168793D01*
X160135Y171747D01*
X156257Y174123D01*
X152056Y175863D01*
X147634Y176925D01*
X143100Y177282D01*
D02*
G37*
G36*
X228000Y117104D02*
X224867Y116691D01*
X221948Y115482D01*
X219442Y113559D01*
X217518Y111052D01*
X216309Y108133D01*
X215896Y105000D01*
X216309Y101867D01*
X217518Y98948D01*
X219442Y96441D01*
X221948Y94518D01*
X224867Y93309D01*
X228000Y92896D01*
X231133Y93309D01*
X234052Y94518D01*
X236558Y96441D01*
X238482Y98948D01*
X239691Y101867D01*
X240104Y105000D01*
X239691Y108133D01*
X238482Y111052D01*
X236558Y113559D01*
X234052Y115482D01*
X231133Y116691D01*
X228000Y117104D01*
D02*
G37*
G36*
X15730Y159730D02*
X8201D01*
X8339Y158679D01*
X9235Y156517D01*
X10660Y154660D01*
X12517Y153235D01*
X14679Y152339D01*
X15730Y152200D01*
Y159730D01*
D02*
G37*
G36*
X18270Y169799D02*
Y162270D01*
X25800D01*
X25661Y163321D01*
X24765Y165483D01*
X23340Y167340D01*
X21483Y168765D01*
X19321Y169661D01*
X18270Y169799D01*
D02*
G37*
G36*
X15730D02*
X14679Y169661D01*
X12517Y168765D01*
X10660Y167340D01*
X9235Y165483D01*
X8339Y163321D01*
X8201Y162270D01*
X15730D01*
Y169799D01*
D02*
G37*
G36*
X25800Y159730D02*
X18270D01*
Y152200D01*
X19321Y152339D01*
X21483Y153235D01*
X23340Y154660D01*
X24765Y156517D01*
X25661Y158679D01*
X25800Y159730D01*
D02*
G37*
G36*
X151090Y485630D02*
X142280D01*
X142462Y484248D01*
X143485Y481776D01*
X145114Y479654D01*
X147236Y478025D01*
X149708Y477001D01*
X151090Y476819D01*
Y485630D01*
D02*
G37*
G36*
X495270Y474799D02*
Y467270D01*
X502799D01*
X502661Y468321D01*
X501765Y470483D01*
X500340Y472340D01*
X498483Y473765D01*
X496321Y474661D01*
X495270Y474799D01*
D02*
G37*
G36*
X492730D02*
X491679Y474661D01*
X489517Y473765D01*
X487660Y472340D01*
X486235Y470483D01*
X485339Y468321D01*
X485201Y467270D01*
X492730D01*
Y474799D01*
D02*
G37*
G36*
X162440Y485630D02*
X153630D01*
Y476819D01*
X155012Y477001D01*
X157484Y478025D01*
X159606Y479654D01*
X161235Y481776D01*
X162258Y484248D01*
X162440Y485630D01*
D02*
G37*
G36*
X126960Y496603D02*
X124449Y496272D01*
X122108Y495303D01*
X120099Y493761D01*
X118557Y491752D01*
X117588Y489411D01*
X117257Y486900D01*
X117588Y484389D01*
X118557Y482048D01*
X120099Y480039D01*
X122108Y478497D01*
X124449Y477528D01*
X126960Y477197D01*
X129471Y477528D01*
X131812Y478497D01*
X133821Y480039D01*
X135363Y482048D01*
X136332Y484389D01*
X136663Y486900D01*
X136332Y489411D01*
X135363Y491752D01*
X133821Y493761D01*
X131812Y495303D01*
X129471Y496272D01*
X126960Y496603D01*
D02*
G37*
G36*
X71080Y485730D02*
X62270D01*
Y476920D01*
X63652Y477102D01*
X66124Y478125D01*
X68246Y479754D01*
X69875Y481876D01*
X70898Y484348D01*
X71080Y485730D01*
D02*
G37*
G36*
X59730D02*
X50919D01*
X51101Y484348D01*
X52125Y481876D01*
X53754Y479754D01*
X55876Y478125D01*
X58348Y477102D01*
X59730Y476920D01*
Y485730D01*
D02*
G37*
G36*
X502799Y464730D02*
X495270D01*
Y457201D01*
X496321Y457339D01*
X498483Y458235D01*
X500340Y459660D01*
X501765Y461517D01*
X502661Y463679D01*
X502799Y464730D01*
D02*
G37*
G36*
X539730Y447799D02*
X538679Y447661D01*
X536517Y446765D01*
X534660Y445340D01*
X533235Y443483D01*
X532339Y441321D01*
X532201Y440270D01*
X539730D01*
Y447799D01*
D02*
G37*
G36*
X286800Y438730D02*
X279270D01*
Y431200D01*
X280321Y431339D01*
X282483Y432235D01*
X284340Y433660D01*
X285765Y435517D01*
X286661Y437679D01*
X286800Y438730D01*
D02*
G37*
G36*
X276730D02*
X269200D01*
X269339Y437679D01*
X270235Y435517D01*
X271660Y433660D01*
X273517Y432235D01*
X275679Y431339D01*
X276730Y431200D01*
Y438730D01*
D02*
G37*
G36*
X542270Y447799D02*
Y440270D01*
X549799D01*
X549661Y441321D01*
X548765Y443483D01*
X547340Y445340D01*
X545483Y446765D01*
X543321Y447661D01*
X542270Y447799D01*
D02*
G37*
G36*
X492730Y464730D02*
X485201D01*
X485339Y463679D01*
X486235Y461517D01*
X487660Y459660D01*
X489517Y458235D01*
X491679Y457339D01*
X492730Y457201D01*
Y464730D01*
D02*
G37*
G36*
X279270Y448800D02*
Y441270D01*
X286800D01*
X286661Y442321D01*
X285765Y444483D01*
X284340Y446340D01*
X282483Y447765D01*
X280321Y448661D01*
X279270Y448800D01*
D02*
G37*
G36*
X276730D02*
X275679Y448661D01*
X273517Y447765D01*
X271660Y446340D01*
X270235Y444483D01*
X269339Y442321D01*
X269200Y441270D01*
X276730D01*
Y448800D01*
D02*
G37*
G36*
X62270Y497080D02*
Y488270D01*
X71080D01*
X70898Y489652D01*
X69875Y492124D01*
X68246Y494246D01*
X66124Y495875D01*
X63652Y496898D01*
X62270Y497080D01*
D02*
G37*
G36*
X59730D02*
X58348Y496898D01*
X55876Y495875D01*
X53754Y494246D01*
X52125Y492124D01*
X51101Y489652D01*
X50919Y488270D01*
X59730D01*
Y497080D01*
D02*
G37*
G36*
X153630Y496981D02*
Y488170D01*
X162440D01*
X162258Y489552D01*
X161235Y492024D01*
X159606Y494146D01*
X157484Y495775D01*
X155012Y496799D01*
X153630Y496981D01*
D02*
G37*
G36*
X393730Y498800D02*
X392679Y498661D01*
X390517Y497765D01*
X388660Y496340D01*
X387235Y494483D01*
X386339Y492321D01*
X386200Y491270D01*
X393730D01*
Y498800D01*
D02*
G37*
G36*
X495270D02*
Y491270D01*
X502799D01*
X502661Y492321D01*
X501765Y494483D01*
X500340Y496340D01*
X498483Y497765D01*
X496321Y498661D01*
X495270Y498800D01*
D02*
G37*
G36*
X492730D02*
X491679Y498661D01*
X489517Y497765D01*
X487660Y496340D01*
X486235Y494483D01*
X485339Y492321D01*
X485201Y491270D01*
X492730D01*
Y498800D01*
D02*
G37*
G36*
X396270D02*
Y491270D01*
X403800D01*
X403661Y492321D01*
X402765Y494483D01*
X401340Y496340D01*
X399483Y497765D01*
X397321Y498661D01*
X396270Y498800D01*
D02*
G37*
G36*
X151090Y496981D02*
X149708Y496799D01*
X147236Y495775D01*
X145114Y494146D01*
X143485Y492024D01*
X142462Y489552D01*
X142280Y488170D01*
X151090D01*
Y496981D01*
D02*
G37*
G36*
X207000Y491571D02*
X204485Y491071D01*
X202353Y489646D01*
X200929Y487515D01*
X200429Y485000D01*
X200929Y482485D01*
X202353Y480353D01*
X204485Y478929D01*
X207000Y478429D01*
X209515Y478929D01*
X211647Y480353D01*
X213071Y482485D01*
X213571Y485000D01*
X213071Y487515D01*
X211647Y489646D01*
X209515Y491071D01*
X207000Y491571D01*
D02*
G37*
G36*
X86400Y496703D02*
X83889Y496372D01*
X81549Y495403D01*
X79539Y493861D01*
X77997Y491852D01*
X77028Y489511D01*
X76697Y487000D01*
X77028Y484489D01*
X77997Y482149D01*
X79539Y480139D01*
X81549Y478597D01*
X83889Y477628D01*
X86400Y477297D01*
X88911Y477628D01*
X91251Y478597D01*
X93261Y480139D01*
X94803Y482149D01*
X95772Y484489D01*
X96103Y487000D01*
X95772Y489511D01*
X94803Y491852D01*
X93261Y493861D01*
X91251Y495403D01*
X88911Y496372D01*
X86400Y496703D01*
D02*
G37*
G36*
X35600D02*
X33089Y496372D01*
X30749Y495403D01*
X28739Y493861D01*
X27197Y491852D01*
X26228Y489511D01*
X25897Y487000D01*
X26228Y484489D01*
X27197Y482149D01*
X28739Y480139D01*
X30749Y478597D01*
X33089Y477628D01*
X35600Y477297D01*
X38111Y477628D01*
X40451Y478597D01*
X42461Y480139D01*
X44003Y482149D01*
X44972Y484489D01*
X45303Y487000D01*
X44972Y489511D01*
X44003Y491852D01*
X42461Y493861D01*
X40451Y495403D01*
X38111Y496372D01*
X35600Y496703D01*
D02*
G37*
G36*
X393730Y488730D02*
X386200D01*
X386339Y487679D01*
X387235Y485517D01*
X388660Y483660D01*
X390517Y482235D01*
X392679Y481339D01*
X393730Y481200D01*
Y488730D01*
D02*
G37*
G36*
X502799D02*
X495270D01*
Y481200D01*
X496321Y481339D01*
X498483Y482235D01*
X500340Y483660D01*
X501765Y485517D01*
X502661Y487679D01*
X502799Y488730D01*
D02*
G37*
G36*
X492730D02*
X485201D01*
X485339Y487679D01*
X486235Y485517D01*
X487660Y483660D01*
X489517Y482235D01*
X491679Y481339D01*
X492730Y481200D01*
Y488730D01*
D02*
G37*
G36*
X403800D02*
X396270D01*
Y481200D01*
X397321Y481339D01*
X399483Y482235D01*
X401340Y483660D01*
X402765Y485517D01*
X403661Y487679D01*
X403800Y488730D01*
D02*
G37*
G36*
X444730Y378730D02*
X437201D01*
X437339Y377679D01*
X438235Y375517D01*
X439660Y373660D01*
X441517Y372235D01*
X443679Y371339D01*
X444730Y371200D01*
Y378730D01*
D02*
G37*
G36*
X406800Y378230D02*
X399270D01*
Y370701D01*
X400321Y370839D01*
X402483Y371735D01*
X404340Y373160D01*
X405765Y375017D01*
X406661Y377179D01*
X406800Y378230D01*
D02*
G37*
G36*
X396730D02*
X389201D01*
X389339Y377179D01*
X390235Y375017D01*
X391660Y373160D01*
X393517Y371735D01*
X395679Y370839D01*
X396730Y370701D01*
Y378230D01*
D02*
G37*
G36*
X454799Y378730D02*
X447270D01*
Y371200D01*
X448321Y371339D01*
X450483Y372235D01*
X452340Y373660D01*
X453765Y375517D01*
X454661Y377679D01*
X454799Y378730D01*
D02*
G37*
G36*
X107730Y387799D02*
X106679Y387661D01*
X104517Y386765D01*
X102660Y385340D01*
X101235Y383483D01*
X100339Y381321D01*
X100201Y380270D01*
X107730D01*
Y387799D01*
D02*
G37*
G36*
X502799Y378730D02*
X495270D01*
Y371200D01*
X496321Y371339D01*
X498483Y372235D01*
X500340Y373660D01*
X501765Y375517D01*
X502661Y377679D01*
X502799Y378730D01*
D02*
G37*
G36*
X492730D02*
X485201D01*
X485339Y377679D01*
X486235Y375517D01*
X487660Y373660D01*
X489517Y372235D01*
X491679Y371339D01*
X492730Y371200D01*
Y378730D01*
D02*
G37*
G36*
X117800Y377730D02*
X110270D01*
Y370201D01*
X111321Y370339D01*
X113483Y371235D01*
X115340Y372660D01*
X116765Y374517D01*
X117661Y376679D01*
X117800Y377730D01*
D02*
G37*
G36*
X367730Y352799D02*
X366679Y352661D01*
X364517Y351765D01*
X362660Y350340D01*
X361235Y348483D01*
X360339Y346321D01*
X360201Y345270D01*
X367730D01*
Y352799D01*
D02*
G37*
G36*
X177799Y346730D02*
X170270D01*
Y339201D01*
X171321Y339339D01*
X173483Y340235D01*
X175340Y341660D01*
X176765Y343517D01*
X177661Y345679D01*
X177799Y346730D01*
D02*
G37*
G36*
X167730D02*
X160201D01*
X160339Y345679D01*
X161235Y343517D01*
X162660Y341660D01*
X164517Y340235D01*
X166679Y339339D01*
X167730Y339201D01*
Y346730D01*
D02*
G37*
G36*
X370270Y352799D02*
Y345270D01*
X377799D01*
X377661Y346321D01*
X376765Y348483D01*
X375340Y350340D01*
X373483Y351765D01*
X371321Y352661D01*
X370270Y352799D01*
D02*
G37*
G36*
X107730Y377730D02*
X100201D01*
X100339Y376679D01*
X101235Y374517D01*
X102660Y372660D01*
X104517Y371235D01*
X106679Y370339D01*
X107730Y370201D01*
Y377730D01*
D02*
G37*
G36*
X170270Y356800D02*
Y349270D01*
X177799D01*
X177661Y350321D01*
X176765Y352483D01*
X175340Y354340D01*
X173483Y355765D01*
X171321Y356661D01*
X170270Y356800D01*
D02*
G37*
G36*
X167730D02*
X166679Y356661D01*
X164517Y355765D01*
X162660Y354340D01*
X161235Y352483D01*
X160339Y350321D01*
X160201Y349270D01*
X167730D01*
Y356800D01*
D02*
G37*
G36*
X193270Y421800D02*
Y414270D01*
X200800D01*
X200661Y415321D01*
X199765Y417483D01*
X198340Y419340D01*
X196483Y420765D01*
X194321Y421661D01*
X193270Y421800D01*
D02*
G37*
G36*
X190730D02*
X189679Y421661D01*
X187517Y420765D01*
X185660Y419340D01*
X184235Y417483D01*
X183339Y415321D01*
X183200Y414270D01*
X190730D01*
Y421800D01*
D02*
G37*
G36*
X200800Y411730D02*
X193270D01*
Y404201D01*
X194321Y404339D01*
X196483Y405235D01*
X198340Y406660D01*
X199765Y408517D01*
X200661Y410679D01*
X200800Y411730D01*
D02*
G37*
G36*
X196840Y440771D02*
X194325Y440271D01*
X192193Y438847D01*
X190769Y436715D01*
X190269Y434200D01*
X190769Y431685D01*
X192193Y429553D01*
X194325Y428129D01*
X196840Y427629D01*
X199355Y428129D01*
X201487Y429553D01*
X202911Y431685D01*
X203411Y434200D01*
X202911Y436715D01*
X201487Y438847D01*
X199355Y440271D01*
X196840Y440771D01*
D02*
G37*
G36*
X549799Y437730D02*
X542270D01*
Y430201D01*
X543321Y430339D01*
X545483Y431235D01*
X547340Y432660D01*
X548765Y434517D01*
X549661Y436679D01*
X549799Y437730D01*
D02*
G37*
G36*
X539730D02*
X532201D01*
X532339Y436679D01*
X533235Y434517D01*
X534660Y432660D01*
X536517Y431235D01*
X538679Y430339D01*
X539730Y430201D01*
Y437730D01*
D02*
G37*
G36*
X217160Y440771D02*
X214645Y440271D01*
X212513Y438847D01*
X211089Y436715D01*
X210589Y434200D01*
X211089Y431685D01*
X212513Y429553D01*
X214645Y428129D01*
X217160Y427629D01*
X219675Y428129D01*
X221807Y429553D01*
X223231Y431685D01*
X223731Y434200D01*
X223231Y436715D01*
X221807Y438847D01*
X219675Y440271D01*
X217160Y440771D01*
D02*
G37*
G36*
X190730Y411730D02*
X183200D01*
X183339Y410679D01*
X184235Y408517D01*
X185660Y406660D01*
X187517Y405235D01*
X189679Y404339D01*
X190730Y404201D01*
Y411730D01*
D02*
G37*
G36*
X399270Y388300D02*
Y380770D01*
X406800D01*
X406661Y381821D01*
X405765Y383983D01*
X404340Y385840D01*
X402483Y387266D01*
X400321Y388161D01*
X399270Y388300D01*
D02*
G37*
G36*
X396730D02*
X395679Y388161D01*
X393517Y387266D01*
X391660Y385840D01*
X390235Y383983D01*
X389339Y381821D01*
X389201Y380770D01*
X396730D01*
Y388300D01*
D02*
G37*
G36*
X110270Y387799D02*
Y380270D01*
X117800D01*
X117661Y381321D01*
X116765Y383483D01*
X115340Y385340D01*
X113483Y386765D01*
X111321Y387661D01*
X110270Y387799D01*
D02*
G37*
G36*
X444730Y388800D02*
X443679Y388661D01*
X441517Y387765D01*
X439660Y386340D01*
X438235Y384483D01*
X437339Y382321D01*
X437201Y381270D01*
X444730D01*
Y388800D01*
D02*
G37*
G36*
X495270D02*
Y381270D01*
X502799D01*
X502661Y382321D01*
X501765Y384483D01*
X500340Y386340D01*
X498483Y387765D01*
X496321Y388661D01*
X495270Y388800D01*
D02*
G37*
G36*
X492730D02*
X491679Y388661D01*
X489517Y387765D01*
X487660Y386340D01*
X486235Y384483D01*
X485339Y382321D01*
X485201Y381270D01*
X492730D01*
Y388800D01*
D02*
G37*
G36*
X447270D02*
Y381270D01*
X454799D01*
X454661Y382321D01*
X453765Y384483D01*
X452340Y386340D01*
X450483Y387765D01*
X448321Y388661D01*
X447270Y388800D01*
D02*
G37*
%LPD*%
D31*
X423100Y148300D02*
D03*
X143100D02*
D03*
D32*
X207000Y485000D02*
D03*
X217160Y434200D02*
D03*
X196840D02*
D03*
D33*
X228000Y105000D02*
D03*
Y35000D02*
D03*
X98000Y63000D02*
D03*
D34*
X126960Y486900D02*
D03*
X152360D02*
D03*
X86400Y487000D02*
D03*
X35600D02*
D03*
X61000D02*
D03*
D35*
X98000Y18000D02*
D03*
D36*
X182000Y78000D02*
D03*
X183000Y18000D02*
D03*
X17000Y161000D02*
D03*
X192000Y413000D02*
D03*
X278000Y440000D02*
D03*
X398000Y379500D02*
D03*
X369000Y344000D02*
D03*
X295000Y25000D02*
D03*
X410000Y312000D02*
D03*
X109000Y285000D02*
D03*
Y379000D02*
D03*
X446000Y380000D02*
D03*
X395000Y490000D02*
D03*
X494000D02*
D03*
Y466000D02*
D03*
Y380000D02*
D03*
X169000Y314000D02*
D03*
Y348000D02*
D03*
X480000Y279000D02*
D03*
X541000Y439000D02*
D03*
X129000Y238000D02*
D03*
X225000Y191000D02*
D03*
X415000Y234000D02*
D03*
X244000Y242000D02*
D03*
X217000Y268000D02*
D03*
M02*
