G04 Layer_Color=2752767*
%FSLAX44Y44*%
%MOMM*%
G71*
G01*
G75*
%ADD39C,0.2540*%
%ADD63C,0.0508*%
%ADD64C,0.0677*%
%ADD65C,0.4064*%
%ADD66C,0.2032*%
D39*
X126141Y812360D02*
X115984D01*
X126141Y822517D01*
Y825056D01*
X123602Y827595D01*
X118524D01*
X115984Y825056D01*
X141376Y827595D02*
X131220D01*
Y819977D01*
X136298Y822517D01*
X138837D01*
X141376Y819977D01*
Y814899D01*
X138837Y812360D01*
X133759D01*
X131220Y814899D01*
X292721Y825056D02*
X295260Y827595D01*
X300339D01*
X302878Y825056D01*
Y814899D01*
X300339Y812360D01*
X295260D01*
X292721Y814899D01*
Y825056D01*
X307956Y812360D02*
Y814899D01*
X310495D01*
Y812360D01*
X307956D01*
X320652Y827595D02*
X330809D01*
Y825056D01*
X320652Y814899D01*
Y812360D01*
X335887D02*
X340965D01*
X338426D01*
Y827595D01*
X335887Y825056D01*
X348583Y812360D02*
X353661D01*
X351122D01*
Y827595D01*
X348583Y825056D01*
X371436Y812360D02*
X361279D01*
X371436Y822517D01*
Y825056D01*
X368896Y827595D01*
X363818D01*
X361279Y825056D01*
X376514Y812360D02*
Y822517D01*
X379053D01*
X381592Y819977D01*
Y812360D01*
Y819977D01*
X384132Y822517D01*
X386671Y819977D01*
Y812360D01*
X391749D02*
Y822517D01*
X394288D01*
X396827Y819977D01*
Y812360D01*
Y819977D01*
X399367Y822517D01*
X401906Y819977D01*
Y812360D01*
X427298D02*
X422219Y817438D01*
Y822517D01*
X427298Y827595D01*
X445072Y812360D02*
X434915D01*
X445072Y822517D01*
Y825056D01*
X442533Y827595D01*
X437454D01*
X434915Y825056D01*
X450150D02*
X452689Y827595D01*
X457768D01*
X460307Y825056D01*
Y822517D01*
X457768Y819977D01*
X460307Y817438D01*
Y814899D01*
X457768Y812360D01*
X452689D01*
X450150Y814899D01*
Y817438D01*
X452689Y819977D01*
X450150Y822517D01*
Y825056D01*
X452689Y819977D02*
X457768D01*
X465385Y812360D02*
Y822517D01*
X467924D01*
X470463Y819977D01*
Y812360D01*
Y819977D01*
X473003Y822517D01*
X475542Y819977D01*
Y812360D01*
X480620D02*
X485699D01*
X483159D01*
Y822517D01*
X480620D01*
X493316Y812360D02*
X498395D01*
X495855D01*
Y827595D01*
X493316D01*
X506012Y812360D02*
X511090Y817438D01*
Y822517D01*
X506012Y827595D01*
X633997Y812360D02*
Y827595D01*
X641614D01*
X644153Y825056D01*
Y819977D01*
X641614Y817438D01*
X633997D01*
X649232Y827595D02*
X659388D01*
X654310D01*
Y812360D01*
X664467Y827595D02*
Y812360D01*
Y819977D01*
X674623D01*
Y827595D01*
Y812360D01*
X761981D02*
Y827595D01*
X769598D01*
X772138Y825056D01*
Y819977D01*
X769598Y817438D01*
X761981D01*
X767059D02*
X772138Y812360D01*
X779755D02*
X784834D01*
X787373Y814899D01*
Y819977D01*
X784834Y822517D01*
X779755D01*
X777216Y819977D01*
Y814899D01*
X779755Y812360D01*
X792451Y822517D02*
Y814899D01*
X794990Y812360D01*
X802608D01*
Y822517D01*
X807686Y812360D02*
Y822517D01*
X815304D01*
X817843Y819977D01*
Y812360D01*
X833078Y827595D02*
Y812360D01*
X825460D01*
X822921Y814899D01*
Y819977D01*
X825460Y822517D01*
X833078D01*
X126141Y797115D02*
X115984D01*
Y789498D01*
X121063Y792037D01*
X123602D01*
X126141Y789498D01*
Y784419D01*
X123602Y781880D01*
X118524D01*
X115984Y784419D01*
X292721Y794576D02*
X295260Y797115D01*
X300339D01*
X302878Y794576D01*
Y784419D01*
X300339Y781880D01*
X295260D01*
X292721Y784419D01*
Y794576D01*
X307956Y781880D02*
Y784419D01*
X310495D01*
Y781880D01*
X307956D01*
X320652Y797115D02*
X330809D01*
Y794576D01*
X320652Y784419D01*
Y781880D01*
X346044Y797115D02*
X340965Y794576D01*
X335887Y789498D01*
Y784419D01*
X338426Y781880D01*
X343505D01*
X346044Y784419D01*
Y786958D01*
X343505Y789498D01*
X335887D01*
X361279Y781880D02*
X351122D01*
X361279Y792037D01*
Y794576D01*
X358740Y797115D01*
X353661D01*
X351122Y794576D01*
X366357Y781880D02*
Y792037D01*
X368896D01*
X371436Y789498D01*
Y781880D01*
Y789498D01*
X373975Y792037D01*
X376514Y789498D01*
Y781880D01*
X381592D02*
Y792037D01*
X384132D01*
X386671Y789498D01*
Y781880D01*
Y789498D01*
X389210Y792037D01*
X391749Y789498D01*
Y781880D01*
X417141D02*
X412062Y786958D01*
Y792037D01*
X417141Y797115D01*
X424758Y794576D02*
X427298Y797115D01*
X432376D01*
X434915Y794576D01*
Y792037D01*
X432376Y789498D01*
X429837D01*
X432376D01*
X434915Y786958D01*
Y784419D01*
X432376Y781880D01*
X427298D01*
X424758Y784419D01*
X439993Y794576D02*
X442533Y797115D01*
X447611D01*
X450150Y794576D01*
Y784419D01*
X447611Y781880D01*
X442533D01*
X439993Y784419D01*
Y794576D01*
X455229Y781880D02*
Y792037D01*
X457768D01*
X460307Y789498D01*
Y781880D01*
Y789498D01*
X462846Y792037D01*
X465385Y789498D01*
Y781880D01*
X470464D02*
X475542D01*
X473003D01*
Y792037D01*
X470464D01*
X483159Y781880D02*
X488238D01*
X485699D01*
Y797115D01*
X483159D01*
X495855Y781880D02*
X500934Y786958D01*
Y792037D01*
X495855Y797115D01*
X633997Y781880D02*
Y797115D01*
X641614D01*
X644153Y794576D01*
Y789498D01*
X641614Y786958D01*
X633997D01*
X649232Y797115D02*
X659388D01*
X654310D01*
Y781880D01*
X664467Y797115D02*
Y781880D01*
Y789498D01*
X674623D01*
Y797115D01*
Y781880D01*
X761981D02*
Y797115D01*
X769598D01*
X772138Y794576D01*
Y789498D01*
X769598Y786958D01*
X761981D01*
X767059D02*
X772138Y781880D01*
X779755D02*
X784834D01*
X787373Y784419D01*
Y789498D01*
X784834Y792037D01*
X779755D01*
X777216Y789498D01*
Y784419D01*
X779755Y781880D01*
X792451Y792037D02*
Y784419D01*
X794990Y781880D01*
X802608D01*
Y792037D01*
X807686Y781880D02*
Y792037D01*
X815304D01*
X817843Y789498D01*
Y781880D01*
X833078Y797115D02*
Y781880D01*
X825460D01*
X822921Y784419D01*
Y789498D01*
X825460Y792037D01*
X833078D01*
X115984Y764096D02*
X118524Y766635D01*
X123602D01*
X126141Y764096D01*
Y761557D01*
X123602Y759017D01*
X121063D01*
X123602D01*
X126141Y756478D01*
Y753939D01*
X123602Y751400D01*
X118524D01*
X115984Y753939D01*
X292721Y764096D02*
X295260Y766635D01*
X300339D01*
X302878Y764096D01*
Y753939D01*
X300339Y751400D01*
X295260D01*
X292721Y753939D01*
Y764096D01*
X307956Y751400D02*
Y753939D01*
X310495D01*
Y751400D01*
X307956D01*
X320652Y764096D02*
X323191Y766635D01*
X328270D01*
X330809Y764096D01*
Y761557D01*
X328270Y759017D01*
X330809Y756478D01*
Y753939D01*
X328270Y751400D01*
X323191D01*
X320652Y753939D01*
Y756478D01*
X323191Y759017D01*
X320652Y761557D01*
Y764096D01*
X323191Y759017D02*
X328270D01*
X335887Y764096D02*
X338426Y766635D01*
X343505D01*
X346044Y764096D01*
Y761557D01*
X343505Y759017D01*
X346044Y756478D01*
Y753939D01*
X343505Y751400D01*
X338426D01*
X335887Y753939D01*
Y756478D01*
X338426Y759017D01*
X335887Y761557D01*
Y764096D01*
X338426Y759017D02*
X343505D01*
X351122Y753939D02*
X353661Y751400D01*
X358740D01*
X361279Y753939D01*
Y764096D01*
X358740Y766635D01*
X353661D01*
X351122Y764096D01*
Y761557D01*
X353661Y759017D01*
X361279D01*
X366357Y751400D02*
Y761557D01*
X368896D01*
X371436Y759017D01*
Y751400D01*
Y759017D01*
X373975Y761557D01*
X376514Y759017D01*
Y751400D01*
X381592D02*
Y761557D01*
X384132D01*
X386671Y759017D01*
Y751400D01*
Y759017D01*
X389210Y761557D01*
X391749Y759017D01*
Y751400D01*
X417141D02*
X412062Y756478D01*
Y761557D01*
X417141Y766635D01*
X424758Y764096D02*
X427298Y766635D01*
X432376D01*
X434915Y764096D01*
Y761557D01*
X432376Y759017D01*
X429837D01*
X432376D01*
X434915Y756478D01*
Y753939D01*
X432376Y751400D01*
X427298D01*
X424758Y753939D01*
X450150Y766635D02*
X439993D01*
Y759017D01*
X445072Y761557D01*
X447611D01*
X450150Y759017D01*
Y753939D01*
X447611Y751400D01*
X442533D01*
X439993Y753939D01*
X455229Y751400D02*
Y761557D01*
X457768D01*
X460307Y759017D01*
Y751400D01*
Y759017D01*
X462846Y761557D01*
X465385Y759017D01*
Y751400D01*
X470464D02*
X475542D01*
X473003D01*
Y761557D01*
X470464D01*
X483159Y751400D02*
X488238D01*
X485699D01*
Y766635D01*
X483159D01*
X495855Y751400D02*
X500934Y756478D01*
Y761557D01*
X495855Y766635D01*
X633997Y751400D02*
Y766635D01*
X644153Y751400D01*
Y766635D01*
X649232Y751400D02*
Y766635D01*
X656849D01*
X659388Y764096D01*
Y759017D01*
X656849Y756478D01*
X649232D01*
X664467Y766635D02*
X674623D01*
X669545D01*
Y751400D01*
X679702Y766635D02*
Y751400D01*
Y759017D01*
X689858D01*
Y766635D01*
Y751400D01*
X761981D02*
Y766635D01*
X769598D01*
X772138Y764096D01*
Y759017D01*
X769598Y756478D01*
X761981D01*
X767059D02*
X772138Y751400D01*
X779755D02*
X784834D01*
X787373Y753939D01*
Y759017D01*
X784834Y761557D01*
X779755D01*
X777216Y759017D01*
Y753939D01*
X779755Y751400D01*
X792451Y761557D02*
Y753939D01*
X794990Y751400D01*
X802608D01*
Y761557D01*
X807686Y751400D02*
Y761557D01*
X815304D01*
X817843Y759017D01*
Y751400D01*
X833078Y766635D02*
Y751400D01*
X825460D01*
X822921Y753939D01*
Y759017D01*
X825460Y761557D01*
X833078D01*
X115984Y720920D02*
X121063D01*
X118524D01*
Y736155D01*
X115984Y733616D01*
X292721Y720920D02*
X297799D01*
X295260D01*
Y736155D01*
X292721Y733616D01*
X305417Y720920D02*
Y723459D01*
X307956D01*
Y720920D01*
X305417D01*
X328270Y736155D02*
X323191Y733616D01*
X318113Y728538D01*
Y723459D01*
X320652Y720920D01*
X325730D01*
X328270Y723459D01*
Y725998D01*
X325730Y728538D01*
X318113D01*
X333348Y720920D02*
Y731077D01*
X335887D01*
X338426Y728538D01*
Y720920D01*
Y728538D01*
X340965Y731077D01*
X343505Y728538D01*
Y720920D01*
X348583D02*
Y731077D01*
X351122D01*
X353661Y728538D01*
Y720920D01*
Y728538D01*
X356200Y731077D01*
X358740Y728538D01*
Y720920D01*
X384132D02*
X379053Y725998D01*
Y731077D01*
X384132Y736155D01*
X401906D02*
X396827Y733616D01*
X391749Y728538D01*
Y723459D01*
X394288Y720920D01*
X399367D01*
X401906Y723459D01*
Y725998D01*
X399367Y728538D01*
X391749D01*
X417141Y720920D02*
X406984D01*
X417141Y731077D01*
Y733616D01*
X414602Y736155D01*
X409523D01*
X406984Y733616D01*
X422219Y720920D02*
Y723459D01*
X424758D01*
Y720920D01*
X422219D01*
X434915Y723459D02*
X437454Y720920D01*
X442533D01*
X445072Y723459D01*
Y733616D01*
X442533Y736155D01*
X437454D01*
X434915Y733616D01*
Y731077D01*
X437454Y728538D01*
X445072D01*
X450150Y723459D02*
X452689Y720920D01*
X457768D01*
X460307Y723459D01*
Y733616D01*
X457768Y736155D01*
X452689D01*
X450150Y733616D01*
Y731077D01*
X452689Y728538D01*
X460307D01*
X475542Y720920D02*
X465385D01*
X475542Y731077D01*
Y733616D01*
X473003Y736155D01*
X467924D01*
X465385Y733616D01*
X480620Y720920D02*
Y731077D01*
X483159D01*
X485699Y728538D01*
Y720920D01*
Y728538D01*
X488238Y731077D01*
X490777Y728538D01*
Y720920D01*
X495855D02*
X500934D01*
X498395D01*
Y731077D01*
X495855D01*
X508551Y720920D02*
X513630D01*
X511090D01*
Y736155D01*
X508551D01*
X521247Y720920D02*
X526325Y725998D01*
Y731077D01*
X521247Y736155D01*
X633997Y720920D02*
Y736155D01*
X641614D01*
X644153Y733616D01*
Y728538D01*
X641614Y725998D01*
X633997D01*
X649232Y736155D02*
X659388D01*
X654310D01*
Y720920D01*
X664467Y736155D02*
Y720920D01*
Y728538D01*
X674623D01*
Y736155D01*
Y720920D01*
X761981D02*
Y736155D01*
X769598D01*
X772138Y733616D01*
Y728538D01*
X769598Y725998D01*
X761981D01*
X767059D02*
X772138Y720920D01*
X779755D02*
X784834D01*
X787373Y723459D01*
Y728538D01*
X784834Y731077D01*
X779755D01*
X777216Y728538D01*
Y723459D01*
X779755Y720920D01*
X792451Y731077D02*
Y723459D01*
X794990Y720920D01*
X802608D01*
Y731077D01*
X807686Y720920D02*
Y731077D01*
X815304D01*
X817843Y728538D01*
Y720920D01*
X833078Y736155D02*
Y720920D01*
X825460D01*
X822921Y723459D01*
Y728538D01*
X825460Y731077D01*
X833078D01*
X126141Y690440D02*
X115984D01*
X126141Y700597D01*
Y703136D01*
X123602Y705675D01*
X118524D01*
X115984Y703136D01*
X292721Y690440D02*
X297799D01*
X295260D01*
Y705675D01*
X292721Y703136D01*
X305417Y690440D02*
Y692979D01*
X307956D01*
Y690440D01*
X305417D01*
X318113Y705675D02*
X328270D01*
Y703136D01*
X318113Y692979D01*
Y690440D01*
X333348D02*
Y700597D01*
X335887D01*
X338426Y698057D01*
Y690440D01*
Y698057D01*
X340965Y700597D01*
X343505Y698057D01*
Y690440D01*
X348583D02*
Y700597D01*
X351122D01*
X353661Y698057D01*
Y690440D01*
Y698057D01*
X356200Y700597D01*
X358740Y698057D01*
Y690440D01*
X384132D02*
X379053Y695518D01*
Y700597D01*
X384132Y705675D01*
X401906D02*
X396827Y703136D01*
X391749Y698057D01*
Y692979D01*
X394288Y690440D01*
X399367D01*
X401906Y692979D01*
Y695518D01*
X399367Y698057D01*
X391749D01*
X417141Y705675D02*
X412062Y703136D01*
X406984Y698057D01*
Y692979D01*
X409523Y690440D01*
X414602D01*
X417141Y692979D01*
Y695518D01*
X414602Y698057D01*
X406984D01*
X422219Y690440D02*
Y692979D01*
X424758D01*
Y690440D01*
X422219D01*
X434915Y692979D02*
X437454Y690440D01*
X442533D01*
X445072Y692979D01*
Y703136D01*
X442533Y705675D01*
X437454D01*
X434915Y703136D01*
Y700597D01*
X437454Y698057D01*
X445072D01*
X460307Y690440D02*
X450150D01*
X460307Y700597D01*
Y703136D01*
X457768Y705675D01*
X452689D01*
X450150Y703136D01*
X465385Y692979D02*
X467924Y690440D01*
X473003D01*
X475542Y692979D01*
Y703136D01*
X473003Y705675D01*
X467924D01*
X465385Y703136D01*
Y700597D01*
X467924Y698057D01*
X475542D01*
X480620Y690440D02*
Y700597D01*
X483159D01*
X485699Y698057D01*
Y690440D01*
Y698057D01*
X488238Y700597D01*
X490777Y698057D01*
Y690440D01*
X495855D02*
X500934D01*
X498395D01*
Y700597D01*
X495855D01*
X508551Y690440D02*
X513630D01*
X511090D01*
Y705675D01*
X508551D01*
X521247Y690440D02*
X526325Y695518D01*
Y700597D01*
X521247Y705675D01*
X633997Y690440D02*
Y705675D01*
X641614D01*
X644153Y703136D01*
Y698057D01*
X641614Y695518D01*
X633997D01*
X649232Y705675D02*
X659388D01*
X654310D01*
Y690440D01*
X664467Y705675D02*
Y690440D01*
Y698057D01*
X674623D01*
Y705675D01*
Y690440D01*
X761981D02*
Y705675D01*
X769598D01*
X772138Y703136D01*
Y698057D01*
X769598Y695518D01*
X761981D01*
X767059D02*
X772138Y690440D01*
X779755D02*
X784834D01*
X787373Y692979D01*
Y698057D01*
X784834Y700597D01*
X779755D01*
X777216Y698057D01*
Y692979D01*
X779755Y690440D01*
X792451Y700597D02*
Y692979D01*
X794990Y690440D01*
X802608D01*
Y700597D01*
X807686Y690440D02*
Y700597D01*
X815304D01*
X817843Y698057D01*
Y690440D01*
X833078Y705675D02*
Y690440D01*
X825460D01*
X822921Y692979D01*
Y698057D01*
X825460Y700597D01*
X833078D01*
X115984Y659960D02*
X121063D01*
X118524D01*
Y675195D01*
X115984Y672656D01*
X292721Y659960D02*
X297799D01*
X295260D01*
Y675195D01*
X292721Y672656D01*
X305417Y659960D02*
Y662499D01*
X307956D01*
Y659960D01*
X305417D01*
X318113Y672656D02*
X320652Y675195D01*
X325730D01*
X328270Y672656D01*
Y670117D01*
X325730Y667578D01*
X328270Y665038D01*
Y662499D01*
X325730Y659960D01*
X320652D01*
X318113Y662499D01*
Y665038D01*
X320652Y667578D01*
X318113Y670117D01*
Y672656D01*
X320652Y667578D02*
X325730D01*
X333348Y659960D02*
Y670117D01*
X335887D01*
X338426Y667578D01*
Y659960D01*
Y667578D01*
X340965Y670117D01*
X343505Y667578D01*
Y659960D01*
X348583D02*
Y670117D01*
X351122D01*
X353661Y667578D01*
Y659960D01*
Y667578D01*
X356200Y670117D01*
X358740Y667578D01*
Y659960D01*
X384132D02*
X379053Y665038D01*
Y670117D01*
X384132Y675195D01*
X391749D02*
X401906D01*
Y672656D01*
X391749Y662499D01*
Y659960D01*
X406984Y672656D02*
X409523Y675195D01*
X414602D01*
X417141Y672656D01*
Y662499D01*
X414602Y659960D01*
X409523D01*
X406984Y662499D01*
Y672656D01*
X422219Y659960D02*
Y662499D01*
X424758D01*
Y659960D01*
X422219D01*
X434915Y672656D02*
X437454Y675195D01*
X442533D01*
X445072Y672656D01*
Y670117D01*
X442533Y667578D01*
X445072Y665038D01*
Y662499D01*
X442533Y659960D01*
X437454D01*
X434915Y662499D01*
Y665038D01*
X437454Y667578D01*
X434915Y670117D01*
Y672656D01*
X437454Y667578D02*
X442533D01*
X460307Y675195D02*
X455229Y672656D01*
X450150Y667578D01*
Y662499D01*
X452689Y659960D01*
X457768D01*
X460307Y662499D01*
Y665038D01*
X457768Y667578D01*
X450150D01*
X475542Y675195D02*
X470463Y672656D01*
X465385Y667578D01*
Y662499D01*
X467924Y659960D01*
X473003D01*
X475542Y662499D01*
Y665038D01*
X473003Y667578D01*
X465385D01*
X480620Y659960D02*
Y670117D01*
X483159D01*
X485699Y667578D01*
Y659960D01*
Y667578D01*
X488238Y670117D01*
X490777Y667578D01*
Y659960D01*
X495855D02*
X500934D01*
X498395D01*
Y670117D01*
X495855D01*
X508551Y659960D02*
X513630D01*
X511090D01*
Y675195D01*
X508551D01*
X521247Y659960D02*
X526325Y665038D01*
Y670117D01*
X521247Y675195D01*
X633997Y659960D02*
Y675195D01*
X641614D01*
X644153Y672656D01*
Y667578D01*
X641614Y665038D01*
X633997D01*
X649232Y675195D02*
X659388D01*
X654310D01*
Y659960D01*
X664467Y675195D02*
Y659960D01*
Y667578D01*
X674623D01*
Y675195D01*
Y659960D01*
X761981D02*
Y675195D01*
X769598D01*
X772138Y672656D01*
Y667578D01*
X769598Y665038D01*
X761981D01*
X767059D02*
X772138Y659960D01*
X779755D02*
X784834D01*
X787373Y662499D01*
Y667578D01*
X784834Y670117D01*
X779755D01*
X777216Y667578D01*
Y662499D01*
X779755Y659960D01*
X792451Y670117D02*
Y662499D01*
X794990Y659960D01*
X802608D01*
Y670117D01*
X807686Y659960D02*
Y670117D01*
X815304D01*
X817843Y667578D01*
Y659960D01*
X833078Y675195D02*
Y659960D01*
X825460D01*
X822921Y662499D01*
Y667578D01*
X825460Y670117D01*
X833078D01*
X126141Y629480D02*
X115984D01*
X126141Y639637D01*
Y642176D01*
X123602Y644715D01*
X118524D01*
X115984Y642176D01*
X292721D02*
X295260Y644715D01*
X300339D01*
X302878Y642176D01*
Y639637D01*
X300339Y637098D01*
X297799D01*
X300339D01*
X302878Y634558D01*
Y632019D01*
X300339Y629480D01*
X295260D01*
X292721Y632019D01*
X307956Y629480D02*
Y632019D01*
X310495D01*
Y629480D01*
X307956D01*
X330809D02*
X320652D01*
X330809Y639637D01*
Y642176D01*
X328270Y644715D01*
X323191D01*
X320652Y642176D01*
X335887Y629480D02*
Y639637D01*
X338426D01*
X340965Y637098D01*
Y629480D01*
Y637098D01*
X343505Y639637D01*
X346044Y637098D01*
Y629480D01*
X351122D02*
Y639637D01*
X353661D01*
X356200Y637098D01*
Y629480D01*
Y637098D01*
X358740Y639637D01*
X361279Y637098D01*
Y629480D01*
X386671D02*
X381592Y634558D01*
Y639637D01*
X386671Y644715D01*
X394288Y629480D02*
X399367D01*
X396827D01*
Y644715D01*
X394288Y642176D01*
X417141Y629480D02*
X406984D01*
X417141Y639637D01*
Y642176D01*
X414602Y644715D01*
X409523D01*
X406984Y642176D01*
X432376Y644715D02*
X422219D01*
Y637098D01*
X427298Y639637D01*
X429837D01*
X432376Y637098D01*
Y632019D01*
X429837Y629480D01*
X424758D01*
X422219Y632019D01*
X437454Y629480D02*
Y632019D01*
X439993D01*
Y629480D01*
X437454D01*
X450150Y632019D02*
X452689Y629480D01*
X457768D01*
X460307Y632019D01*
Y642176D01*
X457768Y644715D01*
X452689D01*
X450150Y642176D01*
Y639637D01*
X452689Y637098D01*
X460307D01*
X465385Y642176D02*
X467924Y644715D01*
X473003D01*
X475542Y642176D01*
Y639637D01*
X473003Y637098D01*
X475542Y634558D01*
Y632019D01*
X473003Y629480D01*
X467924D01*
X465385Y632019D01*
Y634558D01*
X467924Y637098D01*
X465385Y639637D01*
Y642176D01*
X467924Y637098D02*
X473003D01*
X488238Y629480D02*
Y644715D01*
X480620Y637098D01*
X490777D01*
X495855Y629480D02*
Y639637D01*
X498395D01*
X500934Y637098D01*
Y629480D01*
Y637098D01*
X503473Y639637D01*
X506012Y637098D01*
Y629480D01*
X511090D02*
X516169D01*
X513630D01*
Y639637D01*
X511090D01*
X523786Y629480D02*
X528865D01*
X526325D01*
Y644715D01*
X523786D01*
X536482Y629480D02*
X541561Y634558D01*
Y639637D01*
X536482Y644715D01*
X633997Y629480D02*
Y644715D01*
X641614D01*
X644153Y642176D01*
Y637098D01*
X641614Y634558D01*
X633997D01*
X649232Y644715D02*
X659388D01*
X654310D01*
Y629480D01*
X664467Y644715D02*
Y629480D01*
Y637098D01*
X674623D01*
Y644715D01*
Y629480D01*
X761981D02*
Y644715D01*
X769598D01*
X772138Y642176D01*
Y637098D01*
X769598Y634558D01*
X761981D01*
X767059D02*
X772138Y629480D01*
X779755D02*
X784834D01*
X787373Y632019D01*
Y637098D01*
X784834Y639637D01*
X779755D01*
X777216Y637098D01*
Y632019D01*
X779755Y629480D01*
X792451Y639637D02*
Y632019D01*
X794990Y629480D01*
X802608D01*
Y639637D01*
X807686Y629480D02*
Y639637D01*
X815304D01*
X817843Y637098D01*
Y629480D01*
X833078Y644715D02*
Y629480D01*
X825460D01*
X822921Y632019D01*
Y637098D01*
X825460Y639637D01*
X833078D01*
X115984Y611696D02*
X118524Y614235D01*
X123602D01*
X126141Y611696D01*
Y609157D01*
X123602Y606618D01*
X121063D01*
X123602D01*
X126141Y604078D01*
Y601539D01*
X123602Y599000D01*
X118524D01*
X115984Y601539D01*
X131220D02*
X133759Y599000D01*
X138837D01*
X141376Y601539D01*
Y611696D01*
X138837Y614235D01*
X133759D01*
X131220Y611696D01*
Y609157D01*
X133759Y606618D01*
X141376D01*
X168808Y614235D02*
X178965D01*
X173887D01*
Y599000D01*
X186583D02*
X191661D01*
X194200Y601539D01*
Y606618D01*
X191661Y609157D01*
X186583D01*
X184043Y606618D01*
Y601539D01*
X186583Y599000D01*
X201818Y611696D02*
Y609157D01*
X199278D01*
X204357D01*
X201818D01*
Y601539D01*
X204357Y599000D01*
X214513Y609157D02*
X219592D01*
X222131Y606618D01*
Y599000D01*
X214513D01*
X211974Y601539D01*
X214513Y604078D01*
X222131D01*
X227209Y599000D02*
X232288D01*
X229748D01*
Y614235D01*
X227209D01*
D63*
X421068Y146268D02*
Y150332D01*
X425132D01*
Y146268D01*
X421068D01*
X141068D02*
Y150332D01*
X145132D01*
Y146268D01*
X141068D01*
X228000Y102968D02*
X225968Y107032D01*
X230032D01*
X228000Y102968D01*
Y32968D02*
X225968Y37032D01*
X230032D01*
X228000Y32968D01*
X126960Y484868D02*
X127976Y485884D01*
X128992D01*
X127976Y486900D01*
X128992Y487916D01*
X127976D01*
X126960Y488932D01*
X125944Y487916D01*
X124928D01*
X125944Y486900D01*
X124928Y485884D01*
X125944D01*
X126960Y484868D01*
X152360D02*
X153376Y485884D01*
X154392D01*
X153376Y486900D01*
X154392Y487916D01*
X153376D01*
X152360Y488932D01*
X151344Y487916D01*
X150328D01*
X151344Y486900D01*
X150328Y485884D01*
X151344D01*
X152360Y484868D01*
X95968Y15968D02*
X96984Y18000D01*
X95968Y20032D01*
X98000Y19016D01*
X100032Y20032D01*
X99016Y18000D01*
X100032Y15968D01*
X98000Y16984D01*
X95968Y15968D01*
X96984Y61984D02*
Y60968D01*
X99016D01*
Y61984D01*
X100032D01*
Y64016D01*
X99016D01*
Y65032D01*
X96984D01*
Y64016D01*
X95968D01*
Y61984D01*
X96984D01*
X86400Y484968D02*
X87416Y485984D01*
X88432D01*
X87416Y487000D01*
X88432Y488016D01*
X87416D01*
X86400Y489032D01*
X85384Y488016D01*
X84368D01*
X85384Y487000D01*
X84368Y485984D01*
X85384D01*
X86400Y484968D01*
X35600D02*
X36616Y485984D01*
X37632D01*
X36616Y487000D01*
X37632Y488016D01*
X36616D01*
X35600Y489032D01*
X34584Y488016D01*
X33568D01*
X34584Y487000D01*
X33568Y485984D01*
X34584D01*
X35600Y484968D01*
X61000D02*
X62016Y485984D01*
X63032D01*
X62016Y487000D01*
X63032Y488016D01*
X62016D01*
X61000Y489032D01*
X59984Y488016D01*
X58968D01*
X59984Y487000D01*
X58968Y485984D01*
X59984D01*
X61000Y484968D01*
X179968Y75968D02*
X180984D01*
X182000Y76984D01*
X183016Y75968D01*
X184032D01*
Y76984D01*
X183016Y78000D01*
X184032Y79016D01*
Y80032D01*
X183016D01*
X182000Y79016D01*
X180984Y80032D01*
X179968D01*
Y79016D01*
X180984Y78000D01*
X179968Y76984D01*
Y75968D01*
X180968Y15968D02*
X181984D01*
X183000Y16984D01*
X184016Y15968D01*
X185032D01*
Y16984D01*
X184016Y18000D01*
X185032Y19016D01*
Y20032D01*
X184016D01*
X183000Y19016D01*
X181984Y20032D01*
X180968D01*
Y19016D01*
X181984Y18000D01*
X180968Y16984D01*
Y15968D01*
X14968Y158968D02*
X15984D01*
X17000Y159984D01*
X18016Y158968D01*
X19032D01*
Y159984D01*
X18016Y161000D01*
X19032Y162016D01*
Y163032D01*
X18016D01*
X17000Y162016D01*
X15984Y163032D01*
X14968D01*
Y162016D01*
X15984Y161000D01*
X14968Y159984D01*
Y158968D01*
X189968Y410968D02*
X190984D01*
X192000Y411984D01*
X193016Y410968D01*
X194032D01*
Y411984D01*
X193016Y413000D01*
X194032Y414016D01*
Y415032D01*
X193016D01*
X192000Y414016D01*
X190984Y415032D01*
X189968D01*
Y414016D01*
X190984Y413000D01*
X189968Y411984D01*
Y410968D01*
X275968Y437968D02*
X276984D01*
X278000Y438984D01*
X279016Y437968D01*
X280032D01*
Y438984D01*
X279016Y440000D01*
X280032Y441016D01*
Y442032D01*
X279016D01*
X278000Y441016D01*
X276984Y442032D01*
X275968D01*
Y441016D01*
X276984Y440000D01*
X275968Y438984D01*
Y437968D01*
X395968Y377468D02*
X396984D01*
X398000Y378484D01*
X399016Y377468D01*
X400032D01*
Y378484D01*
X399016Y379500D01*
X400032Y380516D01*
Y381532D01*
X399016D01*
X398000Y380516D01*
X396984Y381532D01*
X395968D01*
Y380516D01*
X396984Y379500D01*
X395968Y378484D01*
Y377468D01*
X366968Y341968D02*
X367984D01*
X369000Y342984D01*
X370016Y341968D01*
X371032D01*
Y342984D01*
X370016Y344000D01*
X371032Y345016D01*
Y346032D01*
X370016D01*
X369000Y345016D01*
X367984Y346032D01*
X366968D01*
Y345016D01*
X367984Y344000D01*
X366968Y342984D01*
Y341968D01*
X292968Y22968D02*
X293984D01*
X295000Y23984D01*
X296016Y22968D01*
X297032D01*
Y23984D01*
X296016Y25000D01*
X297032Y26016D01*
Y27032D01*
X296016D01*
X295000Y26016D01*
X293984Y27032D01*
X292968D01*
Y26016D01*
X293984Y25000D01*
X292968Y23984D01*
Y22968D01*
X407968Y309968D02*
X408984D01*
X410000Y310984D01*
X411016Y309968D01*
X412032D01*
Y310984D01*
X411016Y312000D01*
X412032Y313016D01*
Y314032D01*
X411016D01*
X410000Y313016D01*
X408984Y314032D01*
X407968D01*
Y313016D01*
X408984Y312000D01*
X407968Y310984D01*
Y309968D01*
X106968Y282968D02*
X107984D01*
X109000Y283984D01*
X110016Y282968D01*
X111032D01*
Y283984D01*
X110016Y285000D01*
X111032Y286016D01*
Y287032D01*
X110016D01*
X109000Y286016D01*
X107984Y287032D01*
X106968D01*
Y286016D01*
X107984Y285000D01*
X106968Y283984D01*
Y282968D01*
Y376968D02*
X107984D01*
X109000Y377984D01*
X110016Y376968D01*
X111032D01*
Y377984D01*
X110016Y379000D01*
X111032Y380016D01*
Y381032D01*
X110016D01*
X109000Y380016D01*
X107984Y381032D01*
X106968D01*
Y380016D01*
X107984Y379000D01*
X106968Y377984D01*
Y376968D01*
X443968Y377968D02*
X444984D01*
X446000Y378984D01*
X447016Y377968D01*
X448032D01*
Y378984D01*
X447016Y380000D01*
X448032Y381016D01*
Y382032D01*
X447016D01*
X446000Y381016D01*
X444984Y382032D01*
X443968D01*
Y381016D01*
X444984Y380000D01*
X443968Y378984D01*
Y377968D01*
X392968Y487968D02*
X393984D01*
X395000Y488984D01*
X396016Y487968D01*
X397032D01*
Y488984D01*
X396016Y490000D01*
X397032Y491016D01*
Y492032D01*
X396016D01*
X395000Y491016D01*
X393984Y492032D01*
X392968D01*
Y491016D01*
X393984Y490000D01*
X392968Y488984D01*
Y487968D01*
X491968D02*
X492984D01*
X494000Y488984D01*
X495016Y487968D01*
X496032D01*
Y488984D01*
X495016Y490000D01*
X496032Y491016D01*
Y492032D01*
X495016D01*
X494000Y491016D01*
X492984Y492032D01*
X491968D01*
Y491016D01*
X492984Y490000D01*
X491968Y488984D01*
Y487968D01*
Y463968D02*
X492984D01*
X494000Y464984D01*
X495016Y463968D01*
X496032D01*
Y464984D01*
X495016Y466000D01*
X496032Y467016D01*
Y468032D01*
X495016D01*
X494000Y467016D01*
X492984Y468032D01*
X491968D01*
Y467016D01*
X492984Y466000D01*
X491968Y464984D01*
Y463968D01*
Y377968D02*
X492984D01*
X494000Y378984D01*
X495016Y377968D01*
X496032D01*
Y378984D01*
X495016Y380000D01*
X496032Y381016D01*
Y382032D01*
X495016D01*
X494000Y381016D01*
X492984Y382032D01*
X491968D01*
Y381016D01*
X492984Y380000D01*
X491968Y378984D01*
Y377968D01*
X166968Y311968D02*
X167984D01*
X169000Y312984D01*
X170016Y311968D01*
X171032D01*
Y312984D01*
X170016Y314000D01*
X171032Y315016D01*
Y316032D01*
X170016D01*
X169000Y315016D01*
X167984Y316032D01*
X166968D01*
Y315016D01*
X167984Y314000D01*
X166968Y312984D01*
Y311968D01*
Y345968D02*
X167984D01*
X169000Y346984D01*
X170016Y345968D01*
X171032D01*
Y346984D01*
X170016Y348000D01*
X171032Y349016D01*
Y350032D01*
X170016D01*
X169000Y349016D01*
X167984Y350032D01*
X166968D01*
Y349016D01*
X167984Y348000D01*
X166968Y346984D01*
Y345968D01*
X477968Y276968D02*
X478984D01*
X480000Y277984D01*
X481016Y276968D01*
X482032D01*
Y277984D01*
X481016Y279000D01*
X482032Y280016D01*
Y281032D01*
X481016D01*
X480000Y280016D01*
X478984Y281032D01*
X477968D01*
Y280016D01*
X478984Y279000D01*
X477968Y277984D01*
Y276968D01*
X538968Y436968D02*
X539984D01*
X541000Y437984D01*
X542016Y436968D01*
X543032D01*
Y437984D01*
X542016Y439000D01*
X543032Y440016D01*
Y441032D01*
X542016D01*
X541000Y440016D01*
X539984Y441032D01*
X538968D01*
Y440016D01*
X539984Y439000D01*
X538968Y437984D01*
Y436968D01*
X126968Y235968D02*
X127984D01*
X129000Y236984D01*
X130016Y235968D01*
X131032D01*
Y236984D01*
X130016Y238000D01*
X131032Y239016D01*
Y240032D01*
X130016D01*
X129000Y239016D01*
X127984Y240032D01*
X126968D01*
Y239016D01*
X127984Y238000D01*
X126968Y236984D01*
Y235968D01*
X222968Y188968D02*
X223984D01*
X225000Y189984D01*
X226016Y188968D01*
X227032D01*
Y189984D01*
X226016Y191000D01*
X227032Y192016D01*
Y193032D01*
X226016D01*
X225000Y192016D01*
X223984Y193032D01*
X222968D01*
Y192016D01*
X223984Y191000D01*
X222968Y189984D01*
Y188968D01*
X412968Y231968D02*
X413984D01*
X415000Y232984D01*
X416016Y231968D01*
X417032D01*
Y232984D01*
X416016Y234000D01*
X417032Y235016D01*
Y236032D01*
X416016D01*
X415000Y235016D01*
X413984Y236032D01*
X412968D01*
Y235016D01*
X413984Y234000D01*
X412968Y232984D01*
Y231968D01*
X241968Y239968D02*
X242984D01*
X244000Y240984D01*
X245016Y239968D01*
X246032D01*
Y240984D01*
X245016Y242000D01*
X246032Y243016D01*
Y244032D01*
X245016D01*
X244000Y243016D01*
X242984Y244032D01*
X241968D01*
Y243016D01*
X242984Y242000D01*
X241968Y240984D01*
Y239968D01*
X214968Y265968D02*
X215984D01*
X217000Y266984D01*
X218016Y265968D01*
X219032D01*
Y266984D01*
X218016Y268000D01*
X219032Y269016D01*
Y270032D01*
X218016D01*
X217000Y269016D01*
X215984Y270032D01*
X214968D01*
Y269016D01*
X215984Y268000D01*
X214968Y266984D01*
Y265968D01*
X-12000Y813884D02*
X-8952D01*
X-5904Y816932D01*
X-2856Y813884D01*
X192D01*
Y816932D01*
X-2856Y819980D01*
X192Y823028D01*
Y826076D01*
X-2856D01*
X-5904Y823028D01*
X-8952Y826076D01*
X-12000D01*
Y823028D01*
X-8952Y819980D01*
X-12000Y816932D01*
Y813884D01*
X-5904Y783404D02*
X-2856Y786452D01*
X192D01*
X-2856Y789500D01*
X192Y792548D01*
X-2856D01*
X-5904Y795596D01*
X-8952Y792548D01*
X-12000D01*
X-8952Y789500D01*
X-12000Y786452D01*
X-8952D01*
X-5904Y783404D01*
X-12000Y722444D02*
X-8952Y728540D01*
X-12000Y734636D01*
X-5904Y731588D01*
X192Y734636D01*
X-2856Y728540D01*
X192Y722444D01*
X-5904Y725492D01*
X-12000Y722444D01*
X-5904Y691964D02*
X-12000Y704156D01*
X192D01*
X-5904Y691964D01*
X-8952Y664532D02*
Y661484D01*
X-2856D01*
Y664532D01*
X192D01*
Y670628D01*
X-2856D01*
Y673676D01*
X-8952D01*
Y670628D01*
X-12000D01*
Y664532D01*
X-8952D01*
X-12000Y631004D02*
Y643196D01*
X192D01*
Y631004D01*
X-12000D01*
D64*
X209032Y485000D02*
G03*
X209032Y485000I-2032J0D01*
G01*
X219192Y434200D02*
G03*
X219192Y434200I-2032J0D01*
G01*
X198872D02*
G03*
X198872Y434200I-2032J0D01*
G01*
D65*
X188Y864171D02*
X-2859Y867218D01*
X-8953D01*
X-12000Y864171D01*
Y861124D01*
X-8953Y858077D01*
X-2859D01*
X188Y855030D01*
Y851983D01*
X-2859Y848936D01*
X-8953D01*
X-12000Y851983D01*
X6282Y861124D02*
Y851983D01*
X9329Y848936D01*
X18470D01*
Y845889D01*
X15423Y842842D01*
X12376D01*
X18470Y848936D02*
Y861124D01*
X24564Y848936D02*
Y861124D01*
X27611D01*
X30658Y858077D01*
Y848936D01*
Y858077D01*
X33705Y861124D01*
X36752Y858077D01*
Y848936D01*
X42846Y867218D02*
Y848936D01*
X51987D01*
X55034Y851983D01*
Y855030D01*
Y858077D01*
X51987Y861124D01*
X42846D01*
X64175Y848936D02*
X70269D01*
X73316Y851983D01*
Y858077D01*
X70269Y861124D01*
X64175D01*
X61128Y858077D01*
Y851983D01*
X64175Y848936D01*
X79410D02*
X85504D01*
X82457D01*
Y867218D01*
X79410D01*
X115984D02*
Y848936D01*
Y858077D01*
X128173D01*
Y867218D01*
Y848936D01*
X134267D02*
X140360D01*
X137313D01*
Y861124D01*
X134267D01*
X152549Y864171D02*
Y861124D01*
X149502D01*
X155596D01*
X152549D01*
Y851983D01*
X155596Y848936D01*
X195207Y864171D02*
X192160Y867218D01*
X186066D01*
X183019Y864171D01*
Y851983D01*
X186066Y848936D01*
X192160D01*
X195207Y851983D01*
X204348Y848936D02*
X210442D01*
X213489Y851983D01*
Y858077D01*
X210442Y861124D01*
X204348D01*
X201301Y858077D01*
Y851983D01*
X204348Y848936D01*
X219583Y861124D02*
Y851983D01*
X222630Y848936D01*
X231771D01*
Y861124D01*
X237865Y848936D02*
Y861124D01*
X247006D01*
X250053Y858077D01*
Y848936D01*
X259194Y864171D02*
Y861124D01*
X256147D01*
X262241D01*
X259194D01*
Y851983D01*
X262241Y848936D01*
X304909Y867218D02*
X292721D01*
Y858077D01*
X298815D01*
X292721D01*
Y848936D01*
X311003D02*
X317097D01*
X314050D01*
Y861124D01*
X311003D01*
X326238Y848936D02*
Y861124D01*
X335379D01*
X338426Y858077D01*
Y848936D01*
X344520D02*
X350614D01*
X347567D01*
Y861124D01*
X344520D01*
X359755Y848936D02*
X368896D01*
X371944Y851983D01*
X368896Y855030D01*
X362802D01*
X359755Y858077D01*
X362802Y861124D01*
X371944D01*
X378037Y867218D02*
Y848936D01*
Y858077D01*
X381085Y861124D01*
X387178D01*
X390225Y858077D01*
Y848936D01*
X405461D02*
X399367D01*
X396320Y851983D01*
Y858077D01*
X399367Y861124D01*
X405461D01*
X408508Y858077D01*
Y855030D01*
X396320D01*
X426790Y867218D02*
Y848936D01*
X417649D01*
X414602Y851983D01*
Y858077D01*
X417649Y861124D01*
X426790D01*
X451166Y867218D02*
Y848936D01*
Y858077D01*
X463354D01*
Y867218D01*
Y848936D01*
X472495D02*
X478589D01*
X481636Y851983D01*
Y858077D01*
X478589Y861124D01*
X472495D01*
X469448Y858077D01*
Y851983D01*
X472495Y848936D01*
X487730D02*
X493824D01*
X490777D01*
Y867218D01*
X487730D01*
X512106Y848936D02*
X506012D01*
X502965Y851983D01*
Y858077D01*
X506012Y861124D01*
X512106D01*
X515153Y858077D01*
Y855030D01*
X502965D01*
X551717Y864171D02*
X548670Y867218D01*
X542576D01*
X539529Y864171D01*
Y861124D01*
X542576Y858077D01*
X548670D01*
X551717Y855030D01*
Y851983D01*
X548670Y848936D01*
X542576D01*
X539529Y851983D01*
X557811Y848936D02*
X563905D01*
X560858D01*
Y861124D01*
X557811D01*
X573046D02*
X585234D01*
X573046Y848936D01*
X585234D01*
X600470D02*
X594375D01*
X591328Y851983D01*
Y858077D01*
X594375Y861124D01*
X600470D01*
X603517Y858077D01*
Y855030D01*
X591328D01*
X633997Y848936D02*
Y867218D01*
X643138D01*
X646185Y864171D01*
Y858077D01*
X643138Y855030D01*
X633997D01*
X652279Y848936D02*
X658373D01*
X655326D01*
Y867218D01*
X652279D01*
X670561Y861124D02*
X676655D01*
X679702Y858077D01*
Y848936D01*
X670561D01*
X667514Y851983D01*
X670561Y855030D01*
X679702D01*
X688843Y864171D02*
Y861124D01*
X685796D01*
X691890D01*
X688843D01*
Y851983D01*
X691890Y848936D01*
X710172D02*
X704078D01*
X701031Y851983D01*
Y858077D01*
X704078Y861124D01*
X710172D01*
X713219Y858077D01*
Y855030D01*
X701031D01*
X731501Y867218D02*
Y848936D01*
X722360D01*
X719313Y851983D01*
Y858077D01*
X722360Y861124D01*
X731501D01*
X761981Y867218D02*
Y848936D01*
Y858077D01*
X774169D01*
Y867218D01*
Y848936D01*
X783310D02*
X789404D01*
X792451Y851983D01*
Y858077D01*
X789404Y861124D01*
X783310D01*
X780263Y858077D01*
Y851983D01*
X783310Y848936D01*
X798545D02*
X804639D01*
X801592D01*
Y867218D01*
X798545D01*
X822921Y848936D02*
X816827D01*
X813780Y851983D01*
Y858077D01*
X816827Y861124D01*
X822921D01*
X825968Y858077D01*
Y855030D01*
X813780D01*
X850344Y867218D02*
X862532D01*
X856438D01*
Y848936D01*
X868626Y861124D02*
Y851983D01*
X871673Y848936D01*
X880815D01*
Y845889D01*
X877767Y842842D01*
X874721D01*
X880815Y848936D02*
Y861124D01*
X886908Y842842D02*
Y861124D01*
X896050D01*
X899097Y858077D01*
Y851983D01*
X896050Y848936D01*
X886908D01*
X914332D02*
X908238D01*
X905191Y851983D01*
Y858077D01*
X908238Y861124D01*
X914332D01*
X917379Y858077D01*
Y855030D01*
X905191D01*
X-34352Y876368D02*
X947859D01*
X-34352Y835220D02*
X947859D01*
X-34352Y876368D02*
Y591380D01*
X947859Y876368D02*
Y591380D01*
X104808Y876368D02*
Y591380D01*
X281545Y876368D02*
Y591380D01*
X622821Y876368D02*
Y591380D01*
X750805Y876368D02*
Y591380D01*
X-34352Y621860D02*
X947859D01*
X-34352Y591380D02*
X947859D01*
D66*
X192Y759020D02*
G03*
X192Y759020I-6096J0D01*
G01*
M02*
