G04 Layer_Color=65535*
%FSLAX44Y44*%
%MOMM*%
G71*
G01*
G75*
%ADD37C,0.2500*%
%ADD38C,0.6000*%
%ADD39C,0.2540*%
%ADD40C,0.2000*%
D37*
X100750Y248500D02*
G03*
X100750Y248500I-1250J0D01*
G01*
X306250Y302500D02*
G03*
X306250Y302500I-1250J0D01*
G01*
D38*
X286000Y315000D02*
G03*
X286000Y315000I-3000J0D01*
G01*
D39*
X164257Y499198D02*
G03*
X164257Y474602I-24597J-12298D01*
G01*
X81000Y502000D02*
G03*
X41000Y502000I-20000J0D01*
G01*
X128500Y376000D02*
X136500D01*
X161500D02*
X169500D01*
X161500Y286000D02*
X169500D01*
X128500D02*
X136500D01*
X169500D02*
Y376000D01*
X128500Y286000D02*
Y376000D01*
X252000Y-22500D02*
Y7000D01*
X203000Y-22500D02*
X252000D01*
X203000D02*
Y-5000D01*
X198000Y0D02*
X203000Y-5000D01*
X198000Y0D02*
Y145000D01*
X203000D01*
X258000Y40000D02*
Y100000D01*
Y140000D02*
Y145000D01*
X238000D02*
X258000D01*
X105000Y448500D02*
X117500D01*
X105000Y423500D02*
Y428500D01*
Y423500D02*
X117500D01*
X105000Y443500D02*
Y448500D01*
X290500Y164000D02*
Y176500D01*
X310500Y164000D02*
X315500D01*
Y176500D01*
X290500Y164000D02*
X295500D01*
X164257Y474602D02*
Y499198D01*
X123000Y113000D02*
X143000D01*
X123000Y108000D02*
Y113000D01*
X73000Y108000D02*
X123000D01*
X73000Y103000D02*
Y108000D01*
X53000Y103000D02*
X73000D01*
X53000Y-32000D02*
Y-4500D01*
Y40500D02*
Y55500D01*
Y100500D02*
Y103000D01*
X143000Y100500D02*
Y113000D01*
Y40500D02*
Y55500D01*
Y-32000D02*
Y-4500D01*
X53000Y-32000D02*
X143000D01*
X93000D02*
Y-7000D01*
X103000D01*
Y-32000D02*
Y-7000D01*
X518000Y354000D02*
Y361500D01*
Y509000D02*
Y546500D01*
X516500Y547000D02*
X518000D01*
X374000D02*
X518000D01*
X514000Y354000D02*
X518000D01*
X374000D02*
X379000D01*
X374000D02*
Y361500D01*
Y509000D02*
Y547000D01*
X21000Y472000D02*
X36000D01*
X21000D02*
Y502000D01*
X36000D01*
X86000D02*
X101000D01*
Y472000D02*
Y502000D01*
X86000Y472000D02*
X101000D01*
X36000Y502000D02*
X86000D01*
X36000Y472000D02*
X86000D01*
X371540Y27540D02*
Y37537D01*
X376538D01*
X378204Y35871D01*
Y32538D01*
X376538Y30872D01*
X371540D01*
X374872D02*
X378204Y27540D01*
X388201Y37537D02*
X381537D01*
Y27540D01*
X388201D01*
X381537Y32538D02*
X384869D01*
X391534Y37537D02*
Y30872D01*
X394866Y27540D01*
X398198Y30872D01*
Y37537D01*
X411527Y27540D02*
Y34204D01*
X414859Y37537D01*
X418192Y34204D01*
Y27540D01*
Y32538D01*
X411527D01*
X371540Y55629D02*
Y45632D01*
X376538D01*
X378204Y47298D01*
Y48964D01*
X376538Y50630D01*
X371540D01*
X376538D01*
X378204Y52297D01*
Y53963D01*
X376538Y55629D01*
X371540D01*
X381537Y45632D02*
X384869D01*
X383203D01*
Y55629D01*
X381537D01*
X389867Y52297D02*
Y47298D01*
X391534Y45632D01*
X396532D01*
Y52297D01*
X404863Y45632D02*
X401530D01*
X399864Y47298D01*
Y50630D01*
X401530Y52297D01*
X404863D01*
X406529Y50630D01*
Y48964D01*
X399864D01*
X411527Y53963D02*
Y52297D01*
X409861D01*
X413193D01*
X411527D01*
Y47298D01*
X413193Y45632D01*
X419858D02*
X423190D01*
X424856Y47298D01*
Y50630D01*
X423190Y52297D01*
X419858D01*
X418192Y50630D01*
Y47298D01*
X419858Y45632D01*
X429855D02*
X433187D01*
X434853Y47298D01*
Y50630D01*
X433187Y52297D01*
X429855D01*
X428188Y50630D01*
Y47298D01*
X429855Y45632D01*
X439851Y53963D02*
Y52297D01*
X438185D01*
X441517D01*
X439851D01*
Y47298D01*
X441517Y45632D01*
X446516Y55629D02*
Y45632D01*
Y50630D01*
X448182Y52297D01*
X451514D01*
X453180Y50630D01*
Y45632D01*
X468176Y53963D02*
Y52297D01*
X466509D01*
X469842D01*
X468176D01*
Y47298D01*
X469842Y45632D01*
X476506D02*
X479838D01*
X481505Y47298D01*
Y50630D01*
X479838Y52297D01*
X476506D01*
X474840Y50630D01*
Y47298D01*
X476506Y45632D01*
X494834Y55629D02*
X498166D01*
X496500D01*
Y45632D01*
X494834D01*
X498166D01*
X503164D02*
Y55629D01*
X508163D01*
X509829Y53963D01*
Y50630D01*
X508163Y48964D01*
X503164D01*
X506497D02*
X509829Y45632D01*
X513161Y55629D02*
Y45632D01*
X518159D01*
X519826Y47298D01*
Y53963D01*
X518159Y55629D01*
X513161D01*
X523158Y45632D02*
Y52297D01*
X526490Y55629D01*
X529822Y52297D01*
Y45632D01*
Y50630D01*
X523158D01*
X371540Y73721D02*
Y63724D01*
X376538D01*
X378204Y65390D01*
Y67056D01*
Y68723D01*
X376538Y70389D01*
X371540D01*
X383203Y72055D02*
Y70389D01*
X381537D01*
X384869D01*
X383203D01*
Y65390D01*
X384869Y63724D01*
X396532D02*
X389867D01*
X396532Y70389D01*
Y72055D01*
X394866Y73721D01*
X391534D01*
X389867Y72055D01*
X399864Y63724D02*
X403196D01*
X401530D01*
Y70389D01*
X399864D01*
X408195D02*
Y63724D01*
Y67056D01*
X409861Y68723D01*
X411527Y70389D01*
X413193D01*
X424856Y73721D02*
Y63724D01*
X419858D01*
X418192Y65390D01*
Y68723D01*
X419858Y70389D01*
X424856D01*
X429855D02*
X433187D01*
X434853Y68723D01*
Y63724D01*
X429855D01*
X428188Y65390D01*
X429855Y67056D01*
X434853D01*
D40*
X116000Y181500D02*
Y248500D01*
X142000Y181500D02*
Y248500D01*
X116000D02*
X142000D01*
X116000Y181500D02*
X142000D01*
X190490Y427850D02*
X223510D01*
Y491350D01*
X190490Y427850D02*
Y491350D01*
X223510D01*
X40000Y378500D02*
Y391500D01*
X296500Y112000D02*
X309500D01*
X501500Y289000D02*
X514500D01*
X288500Y471000D02*
X301500D01*
X254000Y473500D02*
Y486500D01*
X334000Y208500D02*
Y221500D01*
Y247500D02*
Y260500D01*
X384000Y247500D02*
Y260500D01*
Y208500D02*
Y221500D01*
X23500Y428000D02*
X36500D01*
X293000Y305000D02*
Y397000D01*
X201000Y305000D02*
Y397000D01*
Y305000D02*
X293000D01*
X201000Y397000D02*
X293000D01*
X196332Y503997D02*
X193666D01*
X194999D01*
Y497333D01*
X193666Y496000D01*
X192333D01*
X191000Y497333D01*
X198997Y502664D02*
X200330Y503997D01*
X202996D01*
X204329Y502664D01*
Y501332D01*
X202996Y499999D01*
X201663D01*
X202996D01*
X204329Y498666D01*
Y497333D01*
X202996Y496000D01*
X200330D01*
X198997Y497333D01*
X454332Y316665D02*
X452999Y317997D01*
X450333D01*
X449000Y316665D01*
Y311333D01*
X450333Y310000D01*
X452999D01*
X454332Y311333D01*
X462329Y310000D02*
X456997D01*
X462329Y315332D01*
Y316665D01*
X460996Y317997D01*
X458330D01*
X456997Y316665D01*
X15332Y17997D02*
X12666D01*
X13999D01*
Y11333D01*
X12666Y10000D01*
X11333D01*
X10000Y11333D01*
X23329Y10000D02*
X17997D01*
X23329Y15332D01*
Y16665D01*
X21996Y17997D01*
X19330D01*
X17997Y16665D01*
X124000Y275997D02*
Y274664D01*
X126666Y271999D01*
X129332Y274664D01*
Y275997D01*
X126666Y271999D02*
Y268000D01*
X131997D02*
X134663D01*
X133330D01*
Y275997D01*
X131997Y274664D01*
X329332Y171333D02*
Y176665D01*
X327999Y177997D01*
X325333D01*
X324000Y176665D01*
Y171333D01*
X325333Y170000D01*
X327999D01*
X326666Y172666D02*
X329332Y170000D01*
X327999D02*
X329332Y171333D01*
X331997Y170000D02*
X334663D01*
X333330D01*
Y177997D01*
X331997Y176665D01*
X110332Y408333D02*
Y413665D01*
X108999Y414997D01*
X106333D01*
X105000Y413665D01*
Y408333D01*
X106333Y407000D01*
X108999D01*
X107666Y409666D02*
X110332Y407000D01*
X108999D02*
X110332Y408333D01*
X118329Y407000D02*
X112997D01*
X118329Y412332D01*
Y413665D01*
X116996Y414997D01*
X114330D01*
X112997Y413665D01*
X90000Y170997D02*
Y165666D01*
X92666Y163000D01*
X95332Y165666D01*
Y170997D01*
X97997Y163000D02*
Y170997D01*
X101996D01*
X103329Y169664D01*
Y166999D01*
X101996Y165666D01*
X97997D01*
X100663D02*
X103329Y163000D01*
X105995D02*
X108661D01*
X107328D01*
Y170997D01*
X105995Y169664D01*
X87000Y466997D02*
Y460333D01*
X88333Y459000D01*
X90999D01*
X92332Y460333D01*
Y466997D01*
X94997Y465664D02*
X96330Y466997D01*
X98996D01*
X100329Y465664D01*
Y464332D01*
X98996Y462999D01*
X97663D01*
X98996D01*
X100329Y461666D01*
Y460333D01*
X98996Y459000D01*
X96330D01*
X94997Y460333D01*
X524000Y352997D02*
Y346333D01*
X525333Y345000D01*
X527999D01*
X529332Y346333D01*
Y352997D01*
X537329Y345000D02*
X531997D01*
X537329Y350332D01*
Y351665D01*
X535996Y352997D01*
X533330D01*
X531997Y351665D01*
X304000Y287997D02*
Y281333D01*
X305333Y280000D01*
X307999D01*
X309332Y281333D01*
Y287997D01*
X311997Y280000D02*
X314663D01*
X313330D01*
Y287997D01*
X311997Y286665D01*
X526000Y272000D02*
Y279997D01*
X529999D01*
X531332Y278664D01*
Y275999D01*
X529999Y274666D01*
X526000D01*
X528666D02*
X531332Y272000D01*
X539329Y279997D02*
X533997D01*
Y275999D01*
X536663Y277332D01*
X537996D01*
X539329Y275999D01*
Y273333D01*
X537996Y272000D01*
X535330D01*
X533997Y273333D01*
X21000Y454000D02*
Y461997D01*
X24999D01*
X26332Y460664D01*
Y457999D01*
X24999Y456666D01*
X21000D01*
X23666D02*
X26332Y454000D01*
X34329Y461997D02*
X31663Y460664D01*
X28997Y457999D01*
Y455333D01*
X30330Y454000D01*
X32996D01*
X34329Y455333D01*
Y456666D01*
X32996Y457999D01*
X28997D01*
X295000Y138000D02*
Y145997D01*
X298999D01*
X300332Y144665D01*
Y141999D01*
X298999Y140666D01*
X295000D01*
X297666D02*
X300332Y138000D01*
X302997Y144665D02*
X304330Y145997D01*
X306996D01*
X308329Y144665D01*
Y143332D01*
X306996Y141999D01*
X305663D01*
X306996D01*
X308329Y140666D01*
Y139333D01*
X306996Y138000D01*
X304330D01*
X302997Y139333D01*
X22000Y361000D02*
Y368997D01*
X25999D01*
X27332Y367664D01*
Y364999D01*
X25999Y363666D01*
X22000D01*
X24666D02*
X27332Y361000D01*
X33996D02*
Y368997D01*
X29997Y364999D01*
X35329D01*
X339000Y191000D02*
Y198997D01*
X342999D01*
X344332Y197665D01*
Y194999D01*
X342999Y193666D01*
X339000D01*
X341666D02*
X344332Y191000D01*
X346997Y198997D02*
X352329D01*
Y197665D01*
X346997Y192333D01*
Y191000D01*
X338000Y271000D02*
Y278997D01*
X341999D01*
X343332Y277665D01*
Y274999D01*
X341999Y273666D01*
X338000D01*
X340666D02*
X343332Y271000D01*
X345997Y277665D02*
X347330Y278997D01*
X349996D01*
X351329Y277665D01*
Y276332D01*
X349996Y274999D01*
X351329Y273666D01*
Y272333D01*
X349996Y271000D01*
X347330D01*
X345997Y272333D01*
Y273666D01*
X347330Y274999D01*
X345997Y276332D01*
Y277665D01*
X347330Y274999D02*
X349996D01*
X236000Y496000D02*
Y503997D01*
X239999D01*
X241332Y502664D01*
Y499999D01*
X239999Y498666D01*
X236000D01*
X238666D02*
X241332Y496000D01*
X249329D02*
X243997D01*
X249329Y501332D01*
Y502664D01*
X247996Y503997D01*
X245330D01*
X243997Y502664D01*
X287000Y496000D02*
Y503997D01*
X290999D01*
X292332Y502664D01*
Y499999D01*
X290999Y498666D01*
X287000D01*
X289666D02*
X292332Y496000D01*
X294997D02*
X297663D01*
X296330D01*
Y503997D01*
X294997Y502664D01*
X290332Y12997D02*
X287666D01*
X288999D01*
Y6333D01*
X287666Y5000D01*
X286333D01*
X285000Y6333D01*
X292997Y5000D02*
X295663D01*
X294330D01*
Y12997D01*
X292997Y11665D01*
X150000Y454997D02*
Y447000D01*
X153999D01*
X155332Y448333D01*
Y453665D01*
X153999Y454997D01*
X150000D01*
X157997Y447000D02*
X160663D01*
X159330D01*
Y454997D01*
X157997Y453665D01*
X388000Y198997D02*
Y191000D01*
X391999D01*
X393332Y192333D01*
Y197665D01*
X391999Y198997D01*
X388000D01*
X401329Y191000D02*
X395997D01*
X401329Y196332D01*
Y197665D01*
X399996Y198997D01*
X397330D01*
X395997Y197665D01*
X387000Y277997D02*
Y270000D01*
X390999D01*
X392332Y271333D01*
Y276665D01*
X390999Y277997D01*
X387000D01*
X394997Y276665D02*
X396330Y277997D01*
X398996D01*
X400329Y276665D01*
Y275332D01*
X398996Y273999D01*
X397663D01*
X398996D01*
X400329Y272666D01*
Y271333D01*
X398996Y270000D01*
X396330D01*
X394997Y271333D01*
X60332Y426665D02*
X58999Y427997D01*
X56333D01*
X55000Y426665D01*
Y421333D01*
X56333Y420000D01*
X58999D01*
X60332Y421333D01*
X62997Y420000D02*
X65663D01*
X64330D01*
Y427997D01*
X62997Y426665D01*
X69662Y420000D02*
X72328D01*
X70995D01*
Y427997D01*
X69662Y426665D01*
X84332Y354664D02*
X82999Y355997D01*
X80333D01*
X79000Y354664D01*
Y349333D01*
X80333Y348000D01*
X82999D01*
X84332Y349333D01*
X86997Y354664D02*
X88330Y355997D01*
X90996D01*
X92329Y354664D01*
Y353332D01*
X90996Y351999D01*
X92329Y350666D01*
Y349333D01*
X90996Y348000D01*
X88330D01*
X86997Y349333D01*
Y350666D01*
X88330Y351999D01*
X86997Y353332D01*
Y354664D01*
X88330Y351999D02*
X90996D01*
X84332Y314664D02*
X82999Y315997D01*
X80333D01*
X79000Y314664D01*
Y309333D01*
X80333Y308000D01*
X82999D01*
X84332Y309333D01*
X86997D02*
X88330Y308000D01*
X90996D01*
X92329Y309333D01*
Y314664D01*
X90996Y315997D01*
X88330D01*
X86997Y314664D01*
Y313332D01*
X88330Y311999D01*
X92329D01*
X40332Y146664D02*
X38999Y147997D01*
X36333D01*
X35000Y146664D01*
Y141333D01*
X36333Y140000D01*
X38999D01*
X40332Y141333D01*
X42997Y140000D02*
X45663D01*
X44330D01*
Y147997D01*
X42997Y146664D01*
X49662D02*
X50995Y147997D01*
X53661D01*
X54994Y146664D01*
Y141333D01*
X53661Y140000D01*
X50995D01*
X49662Y141333D01*
Y146664D01*
X348826Y380178D02*
X347493Y381511D01*
X344827D01*
X343494Y380178D01*
Y374847D01*
X344827Y373514D01*
X347493D01*
X348826Y374847D01*
X351491Y381511D02*
X356823D01*
Y380178D01*
X351491Y374847D01*
Y373514D01*
X540332Y391665D02*
X538999Y392997D01*
X536333D01*
X535000Y391665D01*
Y386333D01*
X536333Y385000D01*
X538999D01*
X540332Y386333D01*
X542997Y385000D02*
X545663D01*
X544330D01*
Y392997D01*
X542997Y391665D01*
X549662D02*
X550995Y392997D01*
X553661D01*
X554994Y391665D01*
Y390332D01*
X553661Y388999D01*
X552328D01*
X553661D01*
X554994Y387666D01*
Y386333D01*
X553661Y385000D01*
X550995D01*
X549662Y386333D01*
X192332Y211665D02*
X190999Y212997D01*
X188333D01*
X187000Y211665D01*
Y206333D01*
X188333Y205000D01*
X190999D01*
X192332Y206333D01*
X194997Y205000D02*
X197663D01*
X196330D01*
Y212997D01*
X194997Y211665D01*
X206994Y205000D02*
X201662D01*
X206994Y210332D01*
Y211665D01*
X205661Y212997D01*
X202995D01*
X201662Y211665D01*
X242332Y458665D02*
X240999Y459997D01*
X238333D01*
X237000Y458665D01*
Y453333D01*
X238333Y452000D01*
X240999D01*
X242332Y453333D01*
X250329Y459997D02*
X247663Y458665D01*
X244997Y455999D01*
Y453333D01*
X246330Y452000D01*
X248996D01*
X250329Y453333D01*
Y454666D01*
X248996Y455999D01*
X244997D01*
X199668Y281336D02*
X201001Y280003D01*
X203667D01*
X205000Y281336D01*
Y286667D01*
X203667Y288000D01*
X201001D01*
X199668Y286667D01*
X191671Y280003D02*
X197003D01*
Y284001D01*
X194337Y282668D01*
X193004D01*
X191671Y284001D01*
Y286667D01*
X193004Y288000D01*
X195670D01*
X197003Y286667D01*
X279332Y261665D02*
X277999Y262997D01*
X275333D01*
X274000Y261665D01*
Y256333D01*
X275333Y255000D01*
X277999D01*
X279332Y256333D01*
X285996Y255000D02*
Y262997D01*
X281997Y258999D01*
X287329D01*
X320332Y499664D02*
X318999Y500997D01*
X316333D01*
X315000Y499664D01*
Y494333D01*
X316333Y493000D01*
X318999D01*
X320332Y494333D01*
X322997Y493000D02*
X325663D01*
X324330D01*
Y500997D01*
X322997Y499664D01*
X552000Y403999D02*
X557332D01*
X554666Y406665D02*
Y401333D01*
X185000Y177999D02*
X190332D01*
X187666Y180665D02*
Y175333D01*
X58000Y173999D02*
X63332D01*
X60666Y176665D02*
Y171333D01*
M02*
