G04 Layer_Color=128*
%FSLAX44Y44*%
%MOMM*%
G71*
G01*
G75*
%ADD41C,0.0508*%
D41*
X57190Y487000D02*
X64810D01*
X61000Y483190D02*
Y490810D01*
X31790Y487000D02*
X39410D01*
X35600Y483190D02*
Y490810D01*
X82590Y487000D02*
X90210D01*
X86400Y483190D02*
Y490810D01*
X89000Y63000D02*
X107000D01*
X98000Y54000D02*
Y72000D01*
X90000Y18000D02*
X106000D01*
X98000Y10000D02*
Y26000D01*
X148550Y486900D02*
X156170D01*
X152360Y483090D02*
Y490710D01*
X123150Y486900D02*
X130770D01*
X126960Y483090D02*
Y490710D01*
X219500Y35000D02*
X236500D01*
X228000Y26500D02*
Y43500D01*
X219500Y105000D02*
X236500D01*
X228000Y96500D02*
Y113500D01*
X192395Y434200D02*
X201285D01*
X196840Y429755D02*
Y438645D01*
X212715Y434200D02*
X221605D01*
X217160Y429755D02*
Y438645D01*
X202555Y485000D02*
X211445D01*
X207000Y480555D02*
Y489445D01*
X127100Y148300D02*
X159100D01*
X143100Y132300D02*
Y164300D01*
X407100Y148300D02*
X439100D01*
X423100Y132300D02*
Y164300D01*
X213444Y268000D02*
X220556D01*
X217000Y264444D02*
Y271556D01*
X240444Y242000D02*
X247556D01*
X244000Y238444D02*
Y245556D01*
X411444Y234000D02*
X418556D01*
X415000Y230444D02*
Y237556D01*
X221444Y191000D02*
X228556D01*
X225000Y187444D02*
Y194556D01*
X125444Y238000D02*
X132556D01*
X129000Y234444D02*
Y241556D01*
X537444Y439000D02*
X544556D01*
X541000Y435444D02*
Y442556D01*
X476444Y279000D02*
X483556D01*
X480000Y275444D02*
Y282556D01*
X165444Y348000D02*
X172556D01*
X169000Y344444D02*
Y351556D01*
X165444Y314000D02*
X172556D01*
X169000Y310444D02*
Y317556D01*
X490444Y380000D02*
X497556D01*
X494000Y376444D02*
Y383556D01*
X490444Y466000D02*
X497556D01*
X494000Y462444D02*
Y469556D01*
X490444Y490000D02*
X497556D01*
X494000Y486444D02*
Y493556D01*
X391444Y490000D02*
X398556D01*
X395000Y486444D02*
Y493556D01*
X442444Y380000D02*
X449556D01*
X446000Y376444D02*
Y383556D01*
X105444Y379000D02*
X112556D01*
X109000Y375444D02*
Y382556D01*
X105444Y285000D02*
X112556D01*
X109000Y281444D02*
Y288556D01*
X406444Y312000D02*
X413556D01*
X410000Y308444D02*
Y315556D01*
X291444Y25000D02*
X298556D01*
X295000Y21444D02*
Y28556D01*
X365444Y344000D02*
X372556D01*
X369000Y340444D02*
Y347556D01*
X394444Y379500D02*
X401556D01*
X398000Y375944D02*
Y383056D01*
X274444Y440000D02*
X281556D01*
X278000Y436444D02*
Y443556D01*
X188444Y413000D02*
X195556D01*
X192000Y409444D02*
Y416556D01*
X13444Y161000D02*
X20556D01*
X17000Y157444D02*
Y164556D01*
X179444Y18000D02*
X186556D01*
X183000Y14444D02*
Y21556D01*
X178444Y78000D02*
X185556D01*
X182000Y74444D02*
Y81556D01*
M02*
